<svg xmlns="http://www.w3.org/2000/svg" xmlns:xlink="http://www.w3.org/1999/xlink" width="500" zoomAndPan="magnify" viewBox="0 0 375 374.999991" height="500" preserveAspectRatio="xMidYMid meet" version="1.0"><defs><g/><clipPath id="edd4372f8a"><path d="M 58.5 43.5 L 316.5 43.5 L 316.5 301.5 L 58.5 301.5 Z M 58.5 43.5 " clip-rule="nonzero"/></clipPath><clipPath id="9327939839"><path d="M 187.5 301.5 C 153.058594 301.5 120.628906 288.09375 96.292969 263.707031 C 71.90625 239.371094 58.5 206.941406 58.5 172.5 C 58.5 138.058594 71.90625 105.625 96.292969 81.292969 C 120.628906 56.902344 153.058594 43.5 187.5 43.5 C 221.941406 43.5 254.371094 56.902344 278.707031 81.292969 C 303.09375 105.679688 316.5 138.058594 316.5 172.5 C 316.5 206.941406 303.09375 239.371094 278.707031 263.707031 C 254.371094 288.09375 221.941406 301.5 187.5 301.5 Z M 187.5 51.230469 C 155.121094 51.230469 124.648438 63.863281 101.757812 86.757812 C 78.867188 109.648438 66.234375 140.121094 66.234375 172.5 C 66.234375 204.878906 78.867188 235.347656 101.757812 258.242188 C 124.648438 281.132812 155.121094 293.765625 187.5 293.765625 C 219.878906 293.765625 250.351562 281.132812 273.242188 258.242188 C 296.132812 235.347656 308.765625 204.878906 308.765625 172.5 C 308.765625 140.121094 296.132812 109.648438 273.242188 86.757812 C 250.351562 63.863281 219.878906 51.230469 187.5 51.230469 Z M 187.5 51.230469 " clip-rule="nonzero"/></clipPath><clipPath id="f3ed460d9c"><path d="M 80.125 130.414062 L 294.625 130.414062 L 294.625 221.914062 L 80.125 221.914062 Z M 80.125 130.414062 " clip-rule="nonzero"/></clipPath><clipPath id="4c7d508636"><path d="M 163 90.226562 L 208 90.226562 L 208 105 L 163 105 Z M 163 90.226562 " clip-rule="nonzero"/></clipPath><clipPath id="04280a798c"><path d="M 106.152344 152 L 268 152 L 268 187 L 106.152344 187 Z M 106.152344 152 " clip-rule="nonzero"/></clipPath><clipPath id="35d71be14b"><path d="M 106.152344 172 L 268.902344 172 L 268.902344 206 L 106.152344 206 Z M 106.152344 172 " clip-rule="nonzero"/></clipPath><clipPath id="1d4d4fd467"><path d="M 106.152344 136 L 186 136 L 186 164 L 106.152344 164 Z M 106.152344 136 " clip-rule="nonzero"/></clipPath><clipPath id="026ddbe803"><path d="M 106.152344 155 L 186 155 L 186 185 L 106.152344 185 Z M 106.152344 155 " clip-rule="nonzero"/></clipPath></defs><rect x="-37.5" width="450" fill="#ffffff" y="-37.499999" height="449.999989" fill-opacity="1"/><rect x="-37.5" width="450" fill="#ffffff" y="-37.499999" height="449.999989" fill-opacity="1"/><g clip-path="url(#edd4372f8a)"><g clip-path="url(#9327939839)"><path fill="#112241" d="M 58.5 43.5 L 316.5 43.5 L 316.5 301.5 L 58.5 301.5 Z M 58.5 43.5 " fill-opacity="1" fill-rule="nonzero"/></g></g><g clip-path="url(#f3ed460d9c)"><path fill="#112241" d="M 288.226562 201.125 C 285.503906 210.394531 281.347656 219.1875 276.191406 227.289062 C 271.933594 233.878906 267.089844 240.074219 261.648438 245.707031 C 260.945312 246.476562 260.160156 247.164062 259.410156 247.890625 C 258.652344 248.605469 257.914062 249.34375 257.136719 250.039062 L 254.777344 252.089844 L 253.601562 253.117188 L 252.375 254.089844 L 249.933594 256.039062 C 249.105469 256.671875 248.25 257.269531 247.414062 257.890625 C 245.757812 259.160156 243.996094 260.273438 242.269531 261.449219 C 242.019531 261.617188 241.757812 261.789062 241.484375 261.972656 C 241.203125 262.144531 240.914062 262.316406 240.605469 262.5 C 240 262.867188 239.34375 263.257812 238.644531 263.675781 C 237.265625 264.539062 235.636719 265.355469 233.875 266.292969 C 233.433594 266.519531 232.988281 266.769531 232.519531 266.992188 C 232.046875 267.214844 231.570312 267.4375 231.078125 267.664062 C 230.101562 268.113281 229.085938 268.585938 228.039062 269.066406 C 225.894531 269.90625 223.65625 270.914062 221.21875 271.695312 C 211.585938 275.1875 199.5625 277.347656 187.5 277.398438 C 175.433594 277.347656 163.414062 275.1875 153.78125 271.695312 C 151.339844 270.914062 149.101562 269.90625 146.957031 269.066406 C 145.910156 268.585938 144.898438 268.113281 143.917969 267.664062 C 143.429688 267.4375 142.949219 267.214844 142.476562 266.996094 C 142.007812 266.769531 141.566406 266.519531 141.121094 266.292969 C 139.363281 265.355469 137.730469 264.539062 136.351562 263.675781 C 135.652344 263.257812 135 262.867188 134.390625 262.5 C 134.085938 262.320312 133.792969 262.144531 133.511719 261.972656 C 133.238281 261.792969 132.976562 261.617188 132.730469 261.449219 C 126.175781 257.152344 120.019531 252.273438 114.421875 246.792969 C 108.519531 240.898438 103.355469 234.292969 98.808594 227.289062 C 93.648438 219.1875 89.492188 210.394531 86.769531 201.125 C 83.933594 191.886719 82.621094 182.191406 82.539062 172.496094 C 82.621094 162.800781 83.933594 153.105469 86.769531 143.867188 C 89.492188 134.597656 93.648438 125.804688 98.804688 117.707031 C 103.0625 111.117188 107.90625 104.921875 113.347656 99.285156 C 114.050781 98.515625 114.835938 97.828125 115.585938 97.101562 C 116.34375 96.386719 117.082031 95.652344 117.859375 94.957031 L 121.398438 91.875 L 122.621094 90.90625 L 125.0625 88.953125 C 125.890625 88.320312 126.746094 87.722656 127.582031 87.101562 C 129.238281 85.835938 131.003906 84.71875 132.726562 83.546875 C 132.976562 83.378906 133.238281 83.203125 133.511719 83.019531 C 133.792969 82.851562 134.085938 82.675781 134.390625 82.492188 C 134.996094 82.128906 135.652344 81.734375 136.351562 81.320312 C 137.730469 80.453125 139.359375 79.636719 141.121094 78.703125 C 141.566406 78.472656 142.007812 78.222656 142.476562 78 C 142.949219 77.78125 143.429688 77.558594 143.917969 77.332031 C 144.894531 76.878906 145.910156 76.410156 146.957031 75.925781 C 149.101562 75.085938 151.339844 74.082031 153.777344 73.300781 C 163.414062 69.808594 175.433594 67.648438 187.5 67.597656 C 199.5625 67.648438 211.585938 69.808594 221.214844 73.300781 C 223.65625 74.082031 225.894531 75.085938 228.039062 75.925781 C 229.085938 76.410156 230.097656 76.878906 231.078125 77.332031 C 231.566406 77.558594 232.046875 77.78125 232.519531 78 C 232.988281 78.222656 233.429688 78.472656 233.875 78.703125 C 235.632812 79.636719 237.265625 80.453125 238.644531 81.320312 C 239.34375 81.734375 239.996094 82.128906 240.605469 82.492188 C 240.910156 82.675781 241.203125 82.851562 241.484375 83.019531 C 241.757812 83.203125 242.019531 83.378906 242.265625 83.546875 C 248.820312 87.839844 254.976562 92.71875 260.574219 98.199219 C 266.476562 104.097656 271.640625 110.703125 276.1875 117.707031 C 281.347656 125.804688 285.503906 134.597656 288.226562 143.867188 C 291.0625 153.105469 292.375 162.800781 292.457031 172.496094 C 292.375 182.191406 291.0625 191.886719 288.226562 201.125 Z M 294.871094 172.425781 L 294.867188 172.417969 C 294.78125 162.515625 293.449219 152.609375 290.5625 143.164062 C 287.789062 133.691406 283.542969 124.695312 278.246094 116.4375 L 275.699219 112.609375 C 275.699219 112.609375 274.960938 111.578125 273.859375 110.035156 C 272.796875 108.460938 271.171875 106.519531 269.617188 104.523438 C 267.941406 102.625 266.339844 100.667969 264.988281 99.335938 C 263.675781 97.964844 262.800781 97.054688 262.800781 97.054688 C 262.800781 97.054688 262.582031 96.828125 262.183594 96.445312 C 261.785156 96.0625 261.21875 95.511719 260.535156 94.851562 C 259.207031 93.496094 257.273438 91.867188 255.382812 90.191406 C 254.410156 89.382812 253.410156 88.609375 252.484375 87.867188 C 252.023438 87.496094 251.574219 87.140625 251.148438 86.804688 C 250.707031 86.484375 250.292969 86.183594 249.90625 85.90625 C 248.371094 84.796875 247.34375 84.058594 247.34375 84.058594 C 247.34375 84.058594 247.121094 83.875 246.757812 83.644531 C 246.402344 83.402344 245.925781 83.085938 245.449219 82.765625 C 244.496094 82.128906 243.539062 81.488281 243.539062 81.488281 C 243.285156 81.316406 243.019531 81.136719 242.742188 80.949219 C 242.453125 80.773438 242.15625 80.59375 241.84375 80.40625 C 241.222656 80.03125 240.550781 79.628906 239.839844 79.199219 C 238.429688 78.3125 236.761719 77.472656 234.960938 76.515625 C 234.507812 76.28125 234.050781 76.023438 233.574219 75.792969 C 233.09375 75.570312 232.601562 75.339844 232.101562 75.105469 C 231.101562 74.644531 230.0625 74.164062 228.992188 73.667969 C 226.796875 72.804688 224.507812 71.777344 222.007812 70.972656 C 212.152344 67.390625 199.84375 65.171875 187.5 65.125 C 175.152344 65.171875 162.84375 67.390625 152.984375 70.972656 C 150.488281 71.777344 148.199219 72.804688 146.003906 73.667969 C 144.933594 74.164062 143.898438 74.644531 142.894531 75.109375 C 142.394531 75.339844 141.902344 75.570312 141.421875 75.792969 C 140.941406 76.023438 140.488281 76.28125 140.035156 76.515625 C 138.234375 77.472656 136.566406 78.3125 135.15625 79.199219 C 134.445312 79.628906 133.773438 80.03125 133.152344 80.40625 C 132.839844 80.59375 132.542969 80.773438 132.253906 80.949219 C 131.976562 81.136719 131.710938 81.316406 131.453125 81.488281 C 131.453125 81.488281 130.5 82.128906 129.546875 82.765625 C 129.070312 83.085938 128.59375 83.402344 128.238281 83.644531 C 127.875 83.875 127.652344 84.058594 127.652344 84.058594 C 127.652344 84.058594 126.628906 84.796875 125.089844 85.90625 C 124.703125 86.183594 124.289062 86.484375 123.847656 86.804688 C 123.421875 87.140625 122.976562 87.496094 122.511719 87.867188 C 121.585938 88.609375 120.585938 89.382812 119.617188 90.191406 C 117.722656 91.867188 115.792969 93.496094 114.460938 94.851562 C 113.777344 95.511719 113.210938 96.0625 112.8125 96.445312 C 112.414062 96.828125 112.195312 97.054688 112.195312 97.054688 C 112.195312 97.054688 111.320312 97.964844 110.007812 99.335938 C 108.65625 100.667969 107.054688 102.625 105.378906 104.523438 C 103.824219 106.519531 102.199219 108.460938 101.136719 110.035156 C 100.03125 111.582031 99.296875 112.609375 99.296875 112.609375 L 96.75 116.4375 C 91.453125 124.695312 87.207031 133.691406 84.433594 143.164062 C 81.546875 152.609375 80.214844 162.519531 80.128906 172.417969 L 80.125 172.425781 L 80.125 172.566406 L 80.128906 172.578125 C 80.214844 182.476562 81.546875 192.382812 84.433594 201.828125 C 87.207031 211.304688 91.453125 220.296875 96.75 228.558594 L 99.296875 232.382812 C 99.296875 232.382812 100.035156 233.414062 101.136719 234.957031 C 102.199219 236.535156 103.824219 238.476562 105.378906 240.472656 C 107.054688 242.367188 108.65625 244.324219 110.007812 245.660156 C 111.320312 247.027344 112.195312 247.941406 112.195312 247.941406 C 112.195312 247.941406 112.414062 248.167969 112.8125 248.550781 C 113.210938 248.933594 113.777344 249.484375 114.460938 250.140625 C 115.792969 251.496094 117.722656 253.128906 119.617188 254.804688 C 120.585938 255.609375 121.585938 256.382812 122.511719 257.128906 C 122.976562 257.496094 123.421875 257.851562 123.847656 258.191406 C 124.289062 258.507812 124.703125 258.808594 125.089844 259.085938 C 126.628906 260.195312 127.652344 260.9375 127.652344 260.9375 C 127.652344 260.9375 127.875 261.117188 128.238281 261.351562 C 128.59375 261.589844 129.070312 261.910156 129.546875 262.226562 C 130.5 262.867188 131.457031 263.503906 131.457031 263.503906 C 131.710938 263.675781 131.976562 263.859375 132.253906 264.046875 C 132.542969 264.21875 132.839844 264.402344 133.152344 264.589844 C 133.773438 264.964844 134.445312 265.363281 135.15625 265.792969 C 136.566406 266.679688 138.234375 267.519531 140.035156 268.480469 C 140.488281 268.714844 140.945312 268.96875 141.421875 269.199219 C 141.902344 269.425781 142.394531 269.652344 142.894531 269.886719 C 143.898438 270.351562 144.933594 270.832031 146.003906 271.328125 C 148.199219 272.191406 150.488281 273.21875 152.988281 274.023438 C 162.84375 277.601562 175.152344 279.820312 187.5 279.871094 C 199.84375 279.820312 212.152344 277.601562 222.011719 274.023438 C 224.507812 273.21875 226.796875 272.1875 228.992188 271.328125 C 230.0625 270.832031 231.101562 270.351562 232.101562 269.886719 C 232.601562 269.652344 233.09375 269.425781 233.574219 269.199219 C 234.054688 268.96875 234.507812 268.714844 234.960938 268.480469 C 236.761719 267.519531 238.429688 266.679688 239.839844 265.792969 C 240.550781 265.363281 241.222656 264.960938 241.84375 264.589844 C 242.15625 264.402344 242.453125 264.21875 242.742188 264.046875 C 243.019531 263.855469 243.285156 263.675781 243.542969 263.503906 C 243.542969 263.503906 244.496094 262.867188 245.449219 262.226562 C 245.925781 261.910156 246.402344 261.589844 246.757812 261.351562 C 247.121094 261.117188 247.34375 260.9375 247.34375 260.9375 C 247.34375 260.9375 248.371094 260.195312 249.90625 259.085938 C 250.292969 258.808594 250.707031 258.507812 251.148438 258.191406 C 251.574219 257.851562 252.023438 257.496094 252.484375 257.128906 C 253.410156 256.382812 254.410156 255.609375 255.382812 254.804688 C 257.273438 253.128906 259.207031 251.496094 260.535156 250.140625 C 261.21875 249.484375 261.785156 248.933594 262.183594 248.550781 C 262.582031 248.167969 262.800781 247.941406 262.800781 247.941406 C 262.800781 247.941406 263.675781 247.027344 264.988281 245.660156 C 266.339844 244.324219 267.941406 242.367188 269.617188 240.472656 C 271.171875 238.476562 272.796875 236.53125 273.859375 234.957031 C 274.964844 233.414062 275.699219 232.382812 275.699219 232.382812 L 278.246094 228.558594 C 283.542969 220.296875 287.789062 211.304688 290.5625 201.828125 C 293.449219 192.382812 294.78125 182.476562 294.867188 172.574219 L 294.871094 172.566406 L 294.871094 172.425781 " fill-opacity="1" fill-rule="nonzero"/></g><g fill="#000000" fill-opacity="1"><g transform="translate(98.469913, 127.098561)"><g><path d="M -1.15625 -1.671875 L -7.6875 -10.90625 C -7.925781 -11.226562 -8.054688 -11.554688 -8.078125 -11.890625 C -8.097656 -12.234375 -8.003906 -12.582031 -7.796875 -12.9375 L -7.703125 -13.078125 C -7.503906 -13.421875 -7.25 -13.660156 -6.9375 -13.796875 C -6.632812 -13.929688 -6.285156 -13.972656 -5.890625 -13.921875 L 5.328125 -12.5625 C 5.617188 -12.5 5.8125 -12.441406 5.90625 -12.390625 C 6.238281 -12.191406 6.453125 -11.910156 6.546875 -11.546875 C 6.640625 -11.179688 6.585938 -10.832031 6.390625 -10.5 C 6.222656 -10.207031 6.003906 -10.007812 5.734375 -9.90625 C 5.460938 -9.8125 5.164062 -9.78125 4.84375 -9.8125 L 2.625 -10.109375 L -0.34375 -5.15625 L 1.046875 -3.28125 C 1.222656 -3.019531 1.316406 -2.75 1.328125 -2.46875 C 1.335938 -2.1875 1.269531 -1.914062 1.125 -1.65625 C 0.925781 -1.332031 0.648438 -1.128906 0.296875 -1.046875 C -0.0546875 -0.960938 -0.394531 -1.015625 -0.71875 -1.203125 C -0.800781 -1.265625 -0.878906 -1.332031 -0.953125 -1.40625 C -1.035156 -1.488281 -1.101562 -1.578125 -1.15625 -1.671875 Z M -1.984375 -7.390625 L -0.125 -10.515625 L -4.78125 -11.15625 Z M -1.984375 -7.390625 "/></g></g></g><g fill="#000000" fill-opacity="1"><g transform="translate(106.332071, 114.06376)"><g><path d="M -8.40625 -10.59375 C -8.15625 -10.894531 -7.832031 -11.066406 -7.4375 -11.109375 C -7.050781 -11.148438 -6.703125 -11.039062 -6.390625 -10.78125 L -1.703125 -6.90625 C -0.847656 -6.207031 -0.0546875 -5.878906 0.671875 -5.921875 C 1.398438 -5.960938 2.050781 -6.332031 2.625 -7.03125 C 3.195312 -7.726562 3.4375 -8.429688 3.34375 -9.140625 C 3.257812 -9.859375 2.804688 -10.550781 1.984375 -11.21875 L -2.78125 -15.15625 C -3.09375 -15.414062 -3.265625 -15.742188 -3.296875 -16.140625 C -3.335938 -16.535156 -3.226562 -16.882812 -2.96875 -17.1875 C -2.71875 -17.5 -2.394531 -17.675781 -2 -17.71875 C -1.601562 -17.757812 -1.25 -17.648438 -0.9375 -17.390625 L 3.75 -13.53125 C 4.507812 -12.894531 5.085938 -12.234375 5.484375 -11.546875 C 5.890625 -10.859375 6.125 -10.164062 6.1875 -9.46875 C 6.25 -8.78125 6.144531 -8.085938 5.875 -7.390625 C 5.613281 -6.691406 5.203125 -6 4.640625 -5.3125 C 3.515625 -3.957031 2.253906 -3.195312 0.859375 -3.03125 C -0.523438 -2.875 -1.96875 -3.410156 -3.46875 -4.640625 L -8.21875 -8.5625 C -8.53125 -8.820312 -8.703125 -9.148438 -8.734375 -9.546875 C -8.773438 -9.941406 -8.664062 -10.289062 -8.40625 -10.59375 Z M -8.40625 -10.59375 "/></g></g></g><g fill="#000000" fill-opacity="1"><g transform="translate(116.036294, 102.509635)"><g><path d="M -7.5625 -9.078125 C -7.8125 -9.335938 -7.925781 -9.648438 -7.90625 -10.015625 C -7.882812 -10.390625 -7.738281 -10.695312 -7.46875 -10.9375 L -1.234375 -16.625 C -0.972656 -16.875 -0.660156 -16.988281 -0.296875 -16.96875 C 0.0664062 -16.957031 0.375 -16.820312 0.625 -16.5625 C 0.875 -16.289062 0.988281 -15.96875 0.96875 -15.59375 C 0.945312 -15.226562 0.804688 -14.921875 0.546875 -14.671875 L -1.515625 -12.796875 L 4.65625 -6.046875 C 4.914062 -5.753906 5.035156 -5.410156 5.015625 -5.015625 C 5.003906 -4.617188 4.851562 -4.285156 4.5625 -4.015625 C 4.257812 -3.742188 3.910156 -3.617188 3.515625 -3.640625 C 3.117188 -3.660156 2.789062 -3.816406 2.53125 -4.109375 L -3.640625 -10.859375 L -5.6875 -8.984375 C -5.957031 -8.742188 -6.273438 -8.628906 -6.640625 -8.640625 C -7.003906 -8.660156 -7.3125 -8.804688 -7.5625 -9.078125 Z M -7.5625 -9.078125 "/></g></g></g><g fill="#000000" fill-opacity="1"><g transform="translate(125.61001, 93.668683)"><g><path d="M -0.796875 -15.515625 C 0.046875 -16.085938 0.914062 -16.460938 1.8125 -16.640625 C 2.71875 -16.828125 3.59375 -16.84375 4.4375 -16.6875 C 5.289062 -16.53125 6.085938 -16.203125 6.828125 -15.703125 C 7.578125 -15.203125 8.210938 -14.566406 8.734375 -13.796875 L 8.75 -13.765625 C 9.269531 -12.984375 9.613281 -12.15625 9.78125 -11.28125 C 9.945312 -10.414062 9.945312 -9.550781 9.78125 -8.6875 C 9.613281 -7.832031 9.269531 -7.015625 8.75 -6.234375 C 8.238281 -5.460938 7.566406 -4.796875 6.734375 -4.234375 C 5.890625 -3.671875 5.015625 -3.300781 4.109375 -3.125 C 3.203125 -2.945312 2.320312 -2.9375 1.46875 -3.09375 C 0.625 -3.25 -0.164062 -3.570312 -0.90625 -4.0625 C -1.65625 -4.5625 -2.289062 -5.203125 -2.8125 -5.984375 L -2.828125 -6.015625 C -3.347656 -6.796875 -3.6875 -7.617188 -3.84375 -8.484375 C -4.007812 -9.359375 -4.007812 -10.222656 -3.84375 -11.078125 C -3.675781 -11.941406 -3.332031 -12.753906 -2.8125 -13.515625 C -2.300781 -14.285156 -1.628906 -14.953125 -0.796875 -15.515625 Z M 5.265625 -6.46875 C 5.765625 -6.800781 6.148438 -7.1875 6.421875 -7.625 C 6.703125 -8.070312 6.878906 -8.546875 6.953125 -9.046875 C 7.035156 -9.546875 7.019531 -10.054688 6.90625 -10.578125 C 6.789062 -11.097656 6.578125 -11.59375 6.265625 -12.0625 L 6.25 -12.09375 C 5.9375 -12.5625 5.5625 -12.945312 5.125 -13.25 C 4.6875 -13.550781 4.21875 -13.757812 3.71875 -13.875 C 3.21875 -13.988281 2.703125 -14.003906 2.171875 -13.921875 C 1.640625 -13.835938 1.132812 -13.628906 0.65625 -13.296875 C 0.175781 -12.984375 -0.203125 -12.597656 -0.484375 -12.140625 C -0.773438 -11.691406 -0.957031 -11.21875 -1.03125 -10.71875 C -1.113281 -10.21875 -1.097656 -9.707031 -0.984375 -9.1875 C -0.867188 -8.664062 -0.65625 -8.175781 -0.34375 -7.71875 L -0.328125 -7.6875 C -0.015625 -7.21875 0.359375 -6.828125 0.796875 -6.515625 C 1.242188 -6.210938 1.71875 -6.003906 2.21875 -5.890625 C 2.726562 -5.773438 3.242188 -5.765625 3.765625 -5.859375 C 4.296875 -5.953125 4.796875 -6.15625 5.265625 -6.46875 Z M 5.265625 -6.46875 "/></g></g></g><g fill="#000000" fill-opacity="1"><g transform="translate(139.513948, 84.407241)"><g><path d="M 0.90625 -1.828125 L -3.375 -11.359375 C -3.539062 -11.734375 -3.550781 -12.101562 -3.40625 -12.46875 C -3.269531 -12.84375 -3.019531 -13.113281 -2.65625 -13.28125 L -2.359375 -13.421875 C -2.066406 -13.546875 -1.796875 -13.582031 -1.546875 -13.53125 C -1.296875 -13.488281 -1.0625 -13.398438 -0.84375 -13.265625 L 4.65625 -9.5 L 5.53125 -16.140625 C 5.59375 -16.710938 5.882812 -17.113281 6.40625 -17.34375 L 6.6875 -17.46875 C 7.050781 -17.632812 7.421875 -17.644531 7.796875 -17.5 C 8.171875 -17.363281 8.441406 -17.109375 8.609375 -16.734375 L 12.875 -7.234375 C 13.039062 -6.867188 13.050781 -6.5 12.90625 -6.125 C 12.757812 -5.757812 12.503906 -5.492188 12.140625 -5.328125 C 11.773438 -5.160156 11.410156 -5.148438 11.046875 -5.296875 C 10.679688 -5.441406 10.414062 -5.695312 10.25 -6.0625 L 7.578125 -12.03125 L 6.859375 -7.421875 C 6.816406 -7.171875 6.734375 -6.945312 6.609375 -6.75 C 6.484375 -6.550781 6.300781 -6.394531 6.0625 -6.28125 C 5.820312 -6.175781 5.585938 -6.144531 5.359375 -6.1875 C 5.128906 -6.226562 4.898438 -6.316406 4.671875 -6.453125 L 0.8125 -8.921875 L 3.484375 -2.984375 C 3.648438 -2.609375 3.660156 -2.242188 3.515625 -1.890625 C 3.378906 -1.546875 3.128906 -1.289062 2.765625 -1.125 C 2.398438 -0.957031 2.039062 -0.9375 1.6875 -1.0625 C 1.332031 -1.195312 1.070312 -1.453125 0.90625 -1.828125 Z M 0.90625 -1.828125 "/></g></g></g><g fill="#000000" fill-opacity="1"><g transform="translate(155.15313, 77.551997)"><g><path d="M 0.328125 -2.015625 L 2.109375 -13.171875 C 2.171875 -13.566406 2.3125 -13.894531 2.53125 -14.15625 C 2.75 -14.414062 3.054688 -14.597656 3.453125 -14.703125 L 3.609375 -14.75 C 3.992188 -14.84375 4.34375 -14.832031 4.65625 -14.71875 C 4.976562 -14.601562 5.265625 -14.390625 5.515625 -14.078125 L 12.578125 -5.265625 C 12.753906 -5.023438 12.859375 -4.851562 12.890625 -4.75 C 12.992188 -4.375 12.945312 -4.019531 12.75 -3.6875 C 12.5625 -3.363281 12.285156 -3.148438 11.921875 -3.046875 C 11.597656 -2.960938 11.300781 -2.976562 11.03125 -3.09375 C 10.769531 -3.21875 10.535156 -3.398438 10.328125 -3.640625 L 8.9375 -5.421875 L 3.359375 -3.9375 L 3.03125 -1.609375 C 2.976562 -1.304688 2.859375 -1.046875 2.671875 -0.828125 C 2.492188 -0.617188 2.257812 -0.476562 1.96875 -0.40625 C 1.601562 -0.3125 1.265625 -0.359375 0.953125 -0.546875 C 0.640625 -0.734375 0.4375 -1.003906 0.34375 -1.359375 C 0.3125 -1.460938 0.296875 -1.566406 0.296875 -1.671875 C 0.296875 -1.785156 0.304688 -1.898438 0.328125 -2.015625 Z M 3.75 -6.6875 L 7.265625 -7.609375 L 4.375 -11.328125 Z M 3.75 -6.6875 "/></g></g></g><g fill="#000000" fill-opacity="1"><g transform="translate(169.946927, 73.766332)"><g><path d="M -0.859375 -11.78125 C -0.898438 -12.144531 -0.804688 -12.46875 -0.578125 -12.75 C -0.359375 -13.039062 -0.0664062 -13.207031 0.296875 -13.25 L 8.671875 -14.234375 C 9.035156 -14.285156 9.363281 -14.195312 9.65625 -13.96875 C 9.945312 -13.738281 10.113281 -13.441406 10.15625 -13.078125 C 10.195312 -12.710938 10.101562 -12.382812 9.875 -12.09375 C 9.644531 -11.8125 9.347656 -11.644531 8.984375 -11.59375 L 6.234375 -11.28125 L 7.3125 -2.203125 C 7.351562 -1.816406 7.25 -1.460938 7 -1.140625 C 6.757812 -0.828125 6.441406 -0.648438 6.046875 -0.609375 C 5.648438 -0.554688 5.289062 -0.65625 4.96875 -0.90625 C 4.65625 -1.15625 4.476562 -1.472656 4.4375 -1.859375 L 3.359375 -10.9375 L 0.609375 -10.609375 C 0.242188 -10.566406 -0.078125 -10.660156 -0.359375 -10.890625 C -0.648438 -11.117188 -0.816406 -11.414062 -0.859375 -11.78125 Z M -0.859375 -11.78125 "/></g></g></g><g fill="#000000" fill-opacity="1"><g transform="translate(183.150433, 72.415156)"><g><path d="M 1.53125 -11.828125 C 1.53125 -12.222656 1.664062 -12.5625 1.9375 -12.84375 C 2.21875 -13.125 2.5625 -13.269531 2.96875 -13.28125 C 3.363281 -13.28125 3.703125 -13.140625 3.984375 -12.859375 C 4.273438 -12.585938 4.421875 -12.253906 4.421875 -11.859375 L 4.578125 -1.390625 C 4.578125 -0.992188 4.4375 -0.648438 4.15625 -0.359375 C 3.882812 -0.078125 3.550781 0.0625 3.15625 0.0625 C 2.75 0.0703125 2.398438 -0.0625 2.109375 -0.34375 C 1.828125 -0.625 1.6875 -0.960938 1.6875 -1.359375 Z M 1.53125 -11.828125 "/></g></g></g><g fill="#000000" fill-opacity="1"><g transform="translate(190.490502, 72.081939)"><g><path d="M 9.375 -12.40625 C 10.375 -12.300781 11.28125 -12.023438 12.09375 -11.578125 C 12.914062 -11.128906 13.597656 -10.570312 14.140625 -9.90625 C 14.679688 -9.238281 15.078125 -8.476562 15.328125 -7.625 C 15.578125 -6.769531 15.648438 -5.878906 15.546875 -4.953125 L 15.546875 -4.921875 C 15.453125 -3.984375 15.1875 -3.125 14.75 -2.34375 C 14.320312 -1.570312 13.765625 -0.910156 13.078125 -0.359375 C 12.398438 0.179688 11.613281 0.582031 10.71875 0.84375 C 9.820312 1.101562 8.875 1.179688 7.875 1.078125 C 6.875 0.960938 5.96875 0.679688 5.15625 0.234375 C 4.351562 -0.203125 3.675781 -0.753906 3.125 -1.421875 C 2.570312 -2.085938 2.171875 -2.847656 1.921875 -3.703125 C 1.671875 -4.554688 1.597656 -5.453125 1.703125 -6.390625 L 1.703125 -6.421875 C 1.804688 -7.347656 2.070312 -8.195312 2.5 -8.96875 C 2.9375 -9.75 3.5 -10.410156 4.1875 -10.953125 C 4.875 -11.503906 5.660156 -11.910156 6.546875 -12.171875 C 7.429688 -12.429688 8.375 -12.507812 9.375 -12.40625 Z M 8.203125 -1.5625 C 8.796875 -1.5 9.335938 -1.546875 9.828125 -1.703125 C 10.328125 -1.867188 10.769531 -2.117188 11.15625 -2.453125 C 11.539062 -2.785156 11.851562 -3.1875 12.09375 -3.65625 C 12.34375 -4.132812 12.5 -4.65625 12.5625 -5.21875 L 12.5625 -5.25 C 12.625 -5.800781 12.582031 -6.335938 12.4375 -6.859375 C 12.300781 -7.378906 12.078125 -7.84375 11.765625 -8.25 C 11.453125 -8.65625 11.066406 -8.992188 10.609375 -9.265625 C 10.160156 -9.535156 9.644531 -9.703125 9.0625 -9.765625 C 8.488281 -9.828125 7.945312 -9.773438 7.4375 -9.609375 C 6.925781 -9.453125 6.476562 -9.207031 6.09375 -8.875 C 5.707031 -8.539062 5.394531 -8.132812 5.15625 -7.65625 C 4.914062 -7.1875 4.765625 -6.675781 4.703125 -6.125 L 4.703125 -6.09375 C 4.640625 -5.53125 4.675781 -4.988281 4.8125 -4.46875 C 4.945312 -3.945312 5.171875 -3.484375 5.484375 -3.078125 C 5.796875 -2.671875 6.179688 -2.332031 6.640625 -2.0625 C 7.109375 -1.789062 7.628906 -1.625 8.203125 -1.5625 Z M 8.203125 -1.5625 "/></g></g></g><g fill="#000000" fill-opacity="1"><g transform="translate(207.118812, 73.992886)"><g><path d="M 1.859375 -0.84375 L 4.65625 -10.90625 C 4.757812 -11.289062 4.984375 -11.582031 5.328125 -11.78125 C 5.671875 -11.976562 6.035156 -12.023438 6.421875 -11.921875 L 6.703125 -11.828125 C 7.046875 -11.734375 7.304688 -11.582031 7.484375 -11.375 C 7.660156 -11.164062 7.8125 -10.914062 7.9375 -10.625 L 11.359375 -2.09375 L 13.171875 -8.625 C 13.273438 -9 13.492188 -9.28125 13.828125 -9.46875 C 14.171875 -9.664062 14.535156 -9.707031 14.921875 -9.59375 C 15.296875 -9.488281 15.578125 -9.265625 15.765625 -8.921875 C 15.960938 -8.585938 16.007812 -8.234375 15.90625 -7.859375 L 13.109375 2.203125 C 13.003906 2.597656 12.78125 2.890625 12.4375 3.078125 C 12.09375 3.273438 11.734375 3.320312 11.359375 3.21875 L 11.265625 3.203125 C 10.921875 3.109375 10.660156 2.953125 10.484375 2.734375 C 10.316406 2.523438 10.164062 2.273438 10.03125 1.984375 L 6.484375 -6.875 L 4.609375 -0.09375 C 4.503906 0.289062 4.28125 0.578125 3.9375 0.765625 C 3.601562 0.960938 3.242188 1.007812 2.859375 0.90625 C 2.472656 0.800781 2.179688 0.578125 1.984375 0.234375 C 1.796875 -0.0976562 1.753906 -0.457031 1.859375 -0.84375 Z M 1.859375 -0.84375 "/></g></g></g><g fill="#000000" fill-opacity="1"><g transform="translate(222.331001, 78.534551)"><g/></g></g><g fill="#000000" fill-opacity="1"><g transform="translate(228.762315, 81.17717)"><g/></g></g><g fill="#000000" fill-opacity="1"><g transform="translate(234.901822, 84.032633)"><g><path d="M 2.109375 -0.390625 L 7.515625 -9.09375 C 7.722656 -9.4375 8.019531 -9.648438 8.40625 -9.734375 C 8.789062 -9.828125 9.148438 -9.769531 9.484375 -9.5625 L 15.671875 -5.71875 C 15.984375 -5.53125 16.175781 -5.265625 16.25 -4.921875 C 16.332031 -4.578125 16.273438 -4.25 16.078125 -3.9375 C 15.890625 -3.625 15.628906 -3.429688 15.296875 -3.359375 C 14.960938 -3.285156 14.640625 -3.34375 14.328125 -3.53125 L 9.34375 -6.625 L 7.921875 -4.359375 L 12.1875 -1.71875 C 12.5 -1.519531 12.691406 -1.25 12.765625 -0.90625 C 12.847656 -0.5625 12.796875 -0.238281 12.609375 0.0625 C 12.421875 0.363281 12.15625 0.550781 11.8125 0.625 C 11.476562 0.707031 11.15625 0.648438 10.84375 0.453125 L 6.578125 -2.1875 L 5.125 0.171875 L 10.1875 3.3125 C 10.5 3.5 10.691406 3.765625 10.765625 4.109375 C 10.835938 4.453125 10.78125 4.773438 10.59375 5.078125 C 10.40625 5.390625 10.140625 5.582031 9.796875 5.65625 C 9.460938 5.726562 9.140625 5.671875 8.828125 5.484375 L 2.5625 1.59375 C 2.226562 1.382812 2.015625 1.082031 1.921875 0.6875 C 1.828125 0.300781 1.890625 -0.0546875 2.109375 -0.390625 Z M 2.109375 -0.390625 "/></g></g></g><g fill="#000000" fill-opacity="1"><g transform="translate(246.343701, 91.163735)"><g><path d="M 14.578125 -5.203125 C 15.328125 -4.566406 15.890625 -3.941406 16.265625 -3.328125 C 16.648438 -2.710938 16.925781 -2.0625 17.09375 -1.375 C 17.132812 -1.175781 17.128906 -0.96875 17.078125 -0.75 C 17.035156 -0.53125 16.9375 -0.328125 16.78125 -0.140625 C 16.519531 0.171875 16.195312 0.34375 15.8125 0.375 C 15.4375 0.40625 15.09375 0.289062 14.78125 0.03125 C 14.632812 -0.09375 14.53125 -0.222656 14.46875 -0.359375 C 14.40625 -0.492188 14.351562 -0.617188 14.3125 -0.734375 C 14.195312 -1.222656 14.023438 -1.664062 13.796875 -2.0625 C 13.566406 -2.457031 13.25 -2.828125 12.84375 -3.171875 C 12.425781 -3.515625 11.96875 -3.753906 11.46875 -3.890625 C 10.976562 -4.035156 10.484375 -4.070312 9.984375 -4 C 9.492188 -3.9375 9.015625 -3.773438 8.546875 -3.515625 C 8.085938 -3.253906 7.675781 -2.910156 7.3125 -2.484375 L 7.296875 -2.453125 C 6.929688 -2.023438 6.660156 -1.554688 6.484375 -1.046875 C 6.304688 -0.546875 6.222656 -0.046875 6.234375 0.453125 C 6.242188 0.953125 6.359375 1.429688 6.578125 1.890625 C 6.796875 2.359375 7.117188 2.773438 7.546875 3.140625 C 8.023438 3.535156 8.488281 3.804688 8.9375 3.953125 C 9.394531 4.097656 9.890625 4.179688 10.421875 4.203125 C 10.734375 4.191406 11.015625 4.289062 11.265625 4.5 C 11.546875 4.726562 11.703125 5.03125 11.734375 5.40625 C 11.773438 5.78125 11.679688 6.109375 11.453125 6.390625 C 11.304688 6.554688 11.144531 6.671875 10.96875 6.734375 C 10.789062 6.796875 10.601562 6.835938 10.40625 6.859375 C 9.632812 6.898438 8.875 6.789062 8.125 6.53125 C 7.375 6.28125 6.59375 5.8125 5.78125 5.125 C 5.039062 4.507812 4.46875 3.800781 4.0625 3 C 3.65625 2.207031 3.414062 1.382812 3.34375 0.53125 C 3.269531 -0.320312 3.367188 -1.171875 3.640625 -2.015625 C 3.921875 -2.859375 4.359375 -3.640625 4.953125 -4.359375 L 4.984375 -4.390625 C 5.578125 -5.109375 6.265625 -5.671875 7.046875 -6.078125 C 7.828125 -6.492188 8.648438 -6.742188 9.515625 -6.828125 C 10.378906 -6.921875 11.242188 -6.835938 12.109375 -6.578125 C 12.972656 -6.316406 13.796875 -5.859375 14.578125 -5.203125 Z M 14.578125 -5.203125 "/></g></g></g><g fill="#000000" fill-opacity="1"><g transform="translate(257.604813, 100.56778)"><g><path d="M 15.296875 -2.75 C 15.960938 -1.976562 16.441406 -1.15625 16.734375 -0.28125 C 17.035156 0.59375 17.15625 1.457031 17.09375 2.3125 C 17.039062 3.175781 16.816406 4.007812 16.421875 4.8125 C 16.035156 5.613281 15.488281 6.320312 14.78125 6.9375 L 14.765625 6.953125 C 14.054688 7.566406 13.28125 8.007812 12.4375 8.28125 C 11.59375 8.5625 10.726562 8.671875 9.84375 8.609375 C 8.96875 8.554688 8.113281 8.320312 7.28125 7.90625 C 6.457031 7.488281 5.710938 6.898438 5.046875 6.140625 C 4.378906 5.378906 3.898438 4.5625 3.609375 3.6875 C 3.328125 2.8125 3.207031 1.941406 3.25 1.078125 C 3.300781 0.210938 3.523438 -0.613281 3.921875 -1.40625 C 4.316406 -2.207031 4.867188 -2.914062 5.578125 -3.53125 L 5.609375 -3.5625 C 6.316406 -4.175781 7.09375 -4.617188 7.9375 -4.890625 C 8.78125 -5.160156 9.640625 -5.265625 10.515625 -5.203125 C 11.390625 -5.140625 12.238281 -4.90625 13.0625 -4.5 C 13.894531 -4.09375 14.640625 -3.507812 15.296875 -2.75 Z M 7.078125 4.421875 C 7.472656 4.867188 7.90625 5.203125 8.375 5.421875 C 8.851562 5.648438 9.347656 5.769531 9.859375 5.78125 C 10.367188 5.789062 10.875 5.707031 11.375 5.53125 C 11.875 5.351562 12.332031 5.082031 12.75 4.71875 L 12.78125 4.6875 C 13.207031 4.320312 13.546875 3.898438 13.796875 3.421875 C 14.046875 2.953125 14.191406 2.457031 14.234375 1.9375 C 14.285156 1.425781 14.234375 0.914062 14.078125 0.40625 C 13.929688 -0.101562 13.664062 -0.578125 13.28125 -1.015625 C 12.90625 -1.453125 12.472656 -1.78125 11.984375 -2 C 11.503906 -2.226562 11.007812 -2.347656 10.5 -2.359375 C 10 -2.378906 9.5 -2.296875 9 -2.109375 C 8.5 -1.929688 8.035156 -1.660156 7.609375 -1.296875 L 7.59375 -1.28125 C 7.164062 -0.90625 6.828125 -0.476562 6.578125 0 C 6.328125 0.46875 6.175781 0.957031 6.125 1.46875 C 6.070312 1.976562 6.125 2.488281 6.28125 3 C 6.4375 3.519531 6.703125 3.992188 7.078125 4.421875 Z M 7.078125 4.421875 "/></g></g></g><g fill="#000000" fill-opacity="1"><g transform="translate(268.531233, 113.206478)"><g><path d="M 1.9375 0.671875 L 10.859375 -4.765625 C 11.210938 -4.972656 11.582031 -5.03125 11.96875 -4.9375 C 12.351562 -4.851562 12.644531 -4.640625 12.84375 -4.296875 L 13.015625 -4.015625 C 13.179688 -3.753906 13.253906 -3.492188 13.234375 -3.234375 C 13.222656 -2.972656 13.164062 -2.726562 13.0625 -2.5 L 10.015625 3.4375 L 16.71875 3.453125 C 17.289062 3.453125 17.722656 3.691406 18.015625 4.171875 L 18.171875 4.4375 C 18.378906 4.789062 18.4375 5.160156 18.34375 5.546875 C 18.25 5.941406 18.023438 6.242188 17.671875 6.453125 L 8.78125 11.875 C 8.4375 12.082031 8.070312 12.140625 7.6875 12.046875 C 7.300781 11.953125 7.003906 11.726562 6.796875 11.375 C 6.585938 11.039062 6.53125 10.679688 6.625 10.296875 C 6.726562 9.921875 6.953125 9.628906 7.296875 9.421875 L 12.875 6.015625 L 8.234375 5.875 C 7.960938 5.863281 7.722656 5.8125 7.515625 5.71875 C 7.304688 5.625 7.128906 5.457031 6.984375 5.21875 C 6.847656 5 6.785156 4.769531 6.796875 4.53125 C 6.804688 4.300781 6.867188 4.066406 6.984375 3.828125 L 8.96875 -0.296875 L 3.40625 3.09375 C 3.0625 3.300781 2.703125 3.359375 2.328125 3.265625 C 1.953125 3.171875 1.660156 2.953125 1.453125 2.609375 C 1.242188 2.265625 1.1875 1.90625 1.28125 1.53125 C 1.375 1.164062 1.59375 0.878906 1.9375 0.671875 Z M 1.9375 0.671875 "/></g></g></g><g fill="#000000" fill-opacity="1"><g transform="translate(145.865343, 275.303381)"><g><path d="M 10.203125 -8.765625 C 11.023438 -8.484375 11.691406 -8.160156 12.203125 -7.796875 C 12.722656 -7.429688 13.160156 -6.984375 13.515625 -6.453125 C 13.597656 -6.347656 13.664062 -6.191406 13.71875 -5.984375 C 13.78125 -5.785156 13.769531 -5.570312 13.6875 -5.34375 C 13.582031 -5.007812 13.378906 -4.769531 13.078125 -4.625 C 12.773438 -4.476562 12.457031 -4.460938 12.125 -4.578125 C 11.957031 -4.628906 11.820312 -4.695312 11.71875 -4.78125 C 11.625 -4.875 11.546875 -4.96875 11.484375 -5.0625 C 11.234375 -5.40625 10.945312 -5.703125 10.625 -5.953125 C 10.3125 -6.203125 9.894531 -6.414062 9.375 -6.59375 C 8.9375 -6.738281 8.5 -6.785156 8.0625 -6.734375 C 7.625 -6.691406 7.210938 -6.566406 6.828125 -6.359375 C 6.453125 -6.160156 6.113281 -5.878906 5.8125 -5.515625 C 5.519531 -5.160156 5.296875 -4.75 5.140625 -4.28125 L 5.125 -4.265625 C 4.957031 -3.765625 4.878906 -3.28125 4.890625 -2.8125 C 4.910156 -2.351562 5.015625 -1.921875 5.203125 -1.515625 C 5.390625 -1.109375 5.65625 -0.75 6 -0.4375 C 6.351562 -0.125 6.757812 0.109375 7.21875 0.265625 C 8.125 0.566406 8.941406 0.597656 9.671875 0.359375 L 10.1875 -1.171875 L 8.59375 -1.703125 C 8.3125 -1.804688 8.101562 -1.988281 7.96875 -2.25 C 7.832031 -2.519531 7.816406 -2.796875 7.921875 -3.078125 C 8.015625 -3.367188 8.195312 -3.582031 8.46875 -3.71875 C 8.738281 -3.851562 9.015625 -3.867188 9.296875 -3.765625 L 12 -2.859375 C 12.34375 -2.742188 12.585938 -2.523438 12.734375 -2.203125 C 12.890625 -1.890625 12.910156 -1.566406 12.796875 -1.234375 L 11.90625 1.390625 C 11.6875 2.046875 11.234375 2.445312 10.546875 2.59375 C 10.023438 2.71875 9.410156 2.78125 8.703125 2.78125 C 7.992188 2.789062 7.234375 2.65625 6.421875 2.375 C 5.578125 2.09375 4.851562 1.691406 4.25 1.171875 C 3.65625 0.660156 3.191406 0.078125 2.859375 -0.578125 C 2.523438 -1.234375 2.332031 -1.945312 2.28125 -2.71875 C 2.238281 -3.488281 2.359375 -4.273438 2.640625 -5.078125 L 2.640625 -5.109375 C 2.898438 -5.867188 3.285156 -6.539062 3.796875 -7.125 C 4.304688 -7.707031 4.898438 -8.164062 5.578125 -8.5 C 6.265625 -8.84375 7.003906 -9.039062 7.796875 -9.09375 C 8.585938 -9.15625 9.390625 -9.046875 10.203125 -8.765625 Z M 10.203125 -8.765625 "/></g></g></g><g fill="#000000" fill-opacity="1"><g transform="translate(160.861577, 280.108574)"><g><path d="M 3.34375 -9.765625 C 3.414062 -10.097656 3.59375 -10.363281 3.875 -10.5625 C 4.164062 -10.757812 4.488281 -10.820312 4.84375 -10.75 C 5.175781 -10.675781 5.4375 -10.492188 5.625 -10.203125 C 5.820312 -9.910156 5.882812 -9.597656 5.8125 -9.265625 L 4.25 -1.46875 L 8.78125 -0.5625 C 9.101562 -0.488281 9.347656 -0.320312 9.515625 -0.0625 C 9.679688 0.195312 9.734375 0.476562 9.671875 0.78125 C 9.609375 1.09375 9.445312 1.335938 9.1875 1.515625 C 8.9375 1.691406 8.648438 1.742188 8.328125 1.671875 L 2.578125 0.515625 C 2.222656 0.441406 1.945312 0.265625 1.75 -0.015625 C 1.5625 -0.304688 1.503906 -0.617188 1.578125 -0.953125 Z M 3.34375 -9.765625 "/></g></g></g><g fill="#000000" fill-opacity="1"><g transform="translate(173.718173, 282.619928)"><g><path d="M 7.65625 -11.09375 C 8.539062 -11.039062 9.335938 -10.835938 10.046875 -10.484375 C 10.765625 -10.140625 11.375 -9.6875 11.875 -9.125 C 12.375 -8.5625 12.75 -7.914062 13 -7.1875 C 13.257812 -6.457031 13.363281 -5.679688 13.3125 -4.859375 L 13.3125 -4.828125 C 13.25 -4.015625 13.039062 -3.265625 12.6875 -2.578125 C 12.34375 -1.898438 11.882812 -1.3125 11.3125 -0.8125 C 10.75 -0.3125 10.085938 0.0664062 9.328125 0.328125 C 8.566406 0.585938 7.742188 0.691406 6.859375 0.640625 C 5.984375 0.578125 5.1875 0.367188 4.46875 0.015625 C 3.757812 -0.335938 3.15625 -0.796875 2.65625 -1.359375 C 2.15625 -1.921875 1.773438 -2.5625 1.515625 -3.28125 C 1.265625 -4 1.164062 -4.765625 1.21875 -5.578125 L 1.234375 -5.609375 C 1.285156 -6.421875 1.484375 -7.175781 1.828125 -7.875 C 2.171875 -8.570312 2.628906 -9.171875 3.203125 -9.671875 C 3.785156 -10.171875 4.453125 -10.546875 5.203125 -10.796875 C 5.960938 -11.054688 6.78125 -11.15625 7.65625 -11.09375 Z M 7.046875 -1.65625 C 7.554688 -1.625 8.023438 -1.6875 8.453125 -1.84375 C 8.890625 -2.007812 9.265625 -2.242188 9.578125 -2.546875 C 9.898438 -2.847656 10.15625 -3.203125 10.34375 -3.609375 C 10.539062 -4.023438 10.65625 -4.476562 10.6875 -4.96875 L 10.703125 -5 C 10.734375 -5.488281 10.675781 -5.953125 10.53125 -6.390625 C 10.394531 -6.835938 10.179688 -7.234375 9.890625 -7.578125 C 9.597656 -7.929688 9.25 -8.210938 8.84375 -8.421875 C 8.4375 -8.640625 7.976562 -8.765625 7.46875 -8.796875 C 6.96875 -8.835938 6.5 -8.78125 6.0625 -8.625 C 5.632812 -8.46875 5.257812 -8.238281 4.9375 -7.9375 C 4.625 -7.632812 4.375 -7.269531 4.1875 -6.84375 C 4 -6.425781 3.890625 -5.972656 3.859375 -5.484375 L 3.859375 -5.453125 C 3.828125 -4.972656 3.875 -4.507812 4 -4.0625 C 4.132812 -3.625 4.34375 -3.234375 4.625 -2.890625 C 4.914062 -2.546875 5.269531 -2.257812 5.6875 -2.03125 C 6.101562 -1.8125 6.554688 -1.6875 7.046875 -1.65625 Z M 7.046875 -1.65625 "/></g></g></g><g fill="#000000" fill-opacity="1"><g transform="translate(190.578761, 283.421221)"><g><path d="M 1.265625 -1.359375 L 0.578125 -10.21875 C 0.546875 -10.5625 0.644531 -10.863281 0.875 -11.125 C 1.101562 -11.382812 1.394531 -11.53125 1.75 -11.5625 L 5.765625 -11.875 C 6.234375 -11.90625 6.691406 -11.882812 7.140625 -11.8125 C 7.585938 -11.738281 8 -11.597656 8.375 -11.390625 C 8.75 -11.179688 9.054688 -10.894531 9.296875 -10.53125 C 9.535156 -10.175781 9.675781 -9.734375 9.71875 -9.203125 L 9.734375 -9.171875 C 9.773438 -8.546875 9.664062 -8.023438 9.40625 -7.609375 C 9.144531 -7.203125 8.816406 -6.875 8.421875 -6.625 C 9.097656 -6.425781 9.644531 -6.125 10.0625 -5.71875 C 10.476562 -5.320312 10.710938 -4.742188 10.765625 -3.984375 L 10.78125 -3.953125 C 10.8125 -3.441406 10.738281 -2.984375 10.5625 -2.578125 C 10.394531 -2.171875 10.132812 -1.820312 9.78125 -1.53125 C 9.425781 -1.25 8.992188 -1.019531 8.484375 -0.84375 C 7.984375 -0.675781 7.410156 -0.566406 6.765625 -0.515625 L 2.625 -0.203125 C 2.269531 -0.171875 1.957031 -0.269531 1.6875 -0.5 C 1.425781 -0.726562 1.285156 -1.015625 1.265625 -1.359375 Z M 3.4375 -4.984375 L 3.625 -2.5 L 6.59375 -2.71875 C 7.144531 -2.769531 7.566406 -2.898438 7.859375 -3.109375 C 8.160156 -3.328125 8.296875 -3.648438 8.265625 -4.078125 L 8.265625 -4.109375 C 8.234375 -4.484375 8.0625 -4.769531 7.75 -4.96875 C 7.445312 -5.175781 6.972656 -5.253906 6.328125 -5.203125 Z M 3.28125 -7.0625 L 5.578125 -7.234375 C 6.140625 -7.273438 6.570312 -7.40625 6.875 -7.625 C 7.175781 -7.84375 7.3125 -8.15625 7.28125 -8.5625 L 7.265625 -8.59375 C 7.242188 -8.976562 7.085938 -9.257812 6.796875 -9.4375 C 6.503906 -9.613281 6.09375 -9.679688 5.5625 -9.640625 L 3.09375 -9.453125 Z M 3.28125 -7.0625 "/></g></g></g><g fill="#000000" fill-opacity="1"><g transform="translate(205.294485, 282.101906)"><g><path d="M 0.375 -1.734375 L 2.359375 -11.34375 C 2.429688 -11.664062 2.566406 -11.9375 2.765625 -12.15625 C 2.972656 -12.375 3.25 -12.519531 3.59375 -12.59375 L 3.734375 -12.625 C 4.066406 -12.695312 4.367188 -12.675781 4.640625 -12.5625 C 4.910156 -12.445312 5.148438 -12.253906 5.359375 -11.984375 L 11.125 -4.0625 C 11.257812 -3.832031 11.335938 -3.671875 11.359375 -3.578125 C 11.429688 -3.253906 11.378906 -2.953125 11.203125 -2.671875 C 11.023438 -2.398438 10.773438 -2.226562 10.453125 -2.15625 C 10.160156 -2.09375 9.898438 -2.113281 9.671875 -2.21875 C 9.453125 -2.332031 9.257812 -2.507812 9.09375 -2.75 L 7.96875 -4.328125 L 3.078125 -3.265625 L 2.6875 -1.28125 C 2.632812 -1.019531 2.519531 -0.800781 2.34375 -0.625 C 2.175781 -0.445312 1.960938 -0.328125 1.703125 -0.265625 C 1.390625 -0.203125 1.097656 -0.253906 0.828125 -0.421875 C 0.566406 -0.597656 0.398438 -0.847656 0.328125 -1.171875 C 0.316406 -1.253906 0.316406 -1.34375 0.328125 -1.4375 C 0.335938 -1.539062 0.351562 -1.640625 0.375 -1.734375 Z M 3.515625 -5.625 L 6.609375 -6.296875 L 4.265625 -9.640625 Z M 3.515625 -5.625 "/></g></g></g><g fill="#000000" fill-opacity="1"><g transform="translate(220.336703, 278.5803)"><g><path d="M -2.140625 -10.09375 C -2.253906 -10.425781 -2.234375 -10.75 -2.078125 -11.0625 C -1.929688 -11.375 -1.691406 -11.585938 -1.359375 -11.703125 C -1.035156 -11.816406 -0.71875 -11.800781 -0.40625 -11.65625 C -0.09375 -11.507812 0.117188 -11.269531 0.234375 -10.9375 L 2.890625 -3.453125 L 7.25 -5 C 7.550781 -5.101562 7.84375 -5.082031 8.125 -4.9375 C 8.414062 -4.800781 8.613281 -4.585938 8.71875 -4.296875 C 8.820312 -4.003906 8.804688 -3.710938 8.671875 -3.421875 C 8.535156 -3.140625 8.316406 -2.945312 8.015625 -2.84375 L 2.46875 -0.875 C 2.132812 -0.757812 1.8125 -0.773438 1.5 -0.921875 C 1.1875 -1.066406 0.972656 -1.300781 0.859375 -1.625 Z M -2.140625 -10.09375 "/></g></g></g><g clip-path="url(#4c7d508636)"><path fill="#286291" d="M 165.691406 100.726562 C 176.796875 107.121094 209.46875 104.148438 207.84375 96.90625 C 200.636719 99.652344 186.382812 99.777344 177.9375 97.175781 C 177.3125 96.976562 175.414062 96.367188 174.359375 95.4375 C 171.453125 92.871094 177.792969 90.464844 187.933594 90.285156 C 182.390625 90.273438 176.609375 90.933594 172.078125 92.09375 C 163.359375 94.320312 160.730469 97.871094 165.691406 100.726562 " fill-opacity="1" fill-rule="nonzero"/></g><path fill="#286291" d="M 225.429688 104.433594 L 225.316406 104.367188 C 215.359375 110.070312 183.867188 111.773438 164.058594 105.773438 C 162.601562 105.292969 161.34375 104.875 159.695312 104.0625 C 156.589844 102.535156 150.628906 98.542969 162.242188 94.527344 C 160.722656 95.058594 158.71875 95.816406 157.21875 96.394531 C 155.839844 96.964844 154.042969 97.8125 152.683594 98.425781 C 144.8125 102.238281 145.277344 105.699219 147.054688 107.933594 C 157.480469 121.046875 222.671875 118.132812 225.429688 104.433594 " fill-opacity="1" fill-rule="nonzero"/><path fill="#286291" d="M 141.957031 104.675781 C 142.050781 104.609375 142.144531 104.539062 142.234375 104.472656 C 142.140625 104.539062 142.050781 104.609375 141.957031 104.675781 " fill-opacity="1" fill-rule="nonzero"/><path fill="#286291" d="M 240.675781 115.394531 L 240.578125 115.308594 C 228.214844 123.800781 181.148438 126.625 151.75 117.765625 C 135.464844 112.328125 138.445312 107.308594 141.957031 104.675781 C 139.554688 106.421875 136.542969 108.785156 134.292969 110.621094 C 132.84375 112.023438 129.832031 114.945312 131.84375 118.710938 C 142.070312 137.851562 233.613281 135.0625 240.675781 115.394531 " fill-opacity="1" fill-rule="nonzero"/><path fill="#286291" d="M 253.167969 129.261719 L 253.089844 129.15625 C 238.835938 140.117188 178.675781 143.703125 141.421875 132.515625 C 127.613281 127.882812 123.078125 123.175781 127.148438 117.695312 L 123.714844 121.792969 L 120.730469 125.84375 C 120.175781 126.691406 118.703125 128.9375 119.523438 131.652344 C 127.011719 156.457031 241.921875 154.402344 253.167969 129.261719 " fill-opacity="1" fill-rule="nonzero"/><path fill="#286291" d="M 262.359375 145.46875 L 262.308594 145.347656 C 246.78125 158.304688 177.542969 162.582031 133.503906 149.378906 C 119.058594 144.523438 113.613281 139.742188 115.839844 133.878906 C 114.402344 136.757812 112.671875 140.6875 111.425781 143.660156 C 111.203125 144.484375 110.679688 146.417969 111.242188 148.1875 C 119.84375 175.289062 248.363281 172.976562 262.359375 145.46875 " fill-opacity="1" fill-rule="nonzero"/><g clip-path="url(#04280a798c)"><path fill="#286291" d="M 267.703125 163.441406 L 267.679688 163.3125 C 252.082031 177.261719 176.042969 181.980469 128.40625 167.722656 C 110.359375 161.648438 108.273438 156.753906 108.710938 152.367188 L 107.4375 158.382812 L 106.726562 163.457031 C 106.730469 164.363281 106.746094 165.597656 107.03125 166.457031 C 116.429688 194.855469 251.574219 192.320312 267.703125 163.441406 " fill-opacity="1" fill-rule="nonzero"/></g><g clip-path="url(#35d71be14b)"><path fill="#286291" d="M 126.554688 186.90625 C 108.0625 180.675781 107.011719 175.996094 106.246094 172.582031 C 106.363281 176.09375 106.738281 180.769531 107.105469 184.265625 C 107.199219 184.648438 107.28125 185.167969 107.410156 185.539062 C 117.183594 213.539062 251.304688 211.035156 268.652344 182.53125 C 268.710938 182.4375 268.78125 182.304688 268.835938 182.207031 C 254.375 196.535156 175.539062 201.546875 126.554688 186.90625 " fill-opacity="1" fill-rule="nonzero"/></g><path fill="#286291" d="M 128.234375 205.289062 C 116.144531 201.207031 110.878906 197.8125 108.8125 192.769531 C 109.753906 196.027344 111.207031 200.3125 112.375 203.496094 L 112.480469 203.753906 C 126.023438 229.898438 247.21875 227.453125 265.042969 200.675781 C 265.105469 200.585938 265.175781 200.460938 265.238281 200.371094 C 252.296875 214.589844 176.558594 219.703125 128.234375 205.289062 " fill-opacity="1" fill-rule="nonzero"/><path fill="#286291" d="M 133.179688 221.28125 C 120.933594 217.132812 118.175781 214.285156 116.054688 211.253906 L 118.464844 215.417969 C 119.570312 217.1875 121.191406 219.449219 122.367188 221.167969 C 140.824219 243.25 240.488281 240.035156 257.359375 216.8125 C 257.421875 216.734375 257.492188 216.625 257.550781 216.542969 C 247.03125 229.523438 177.261719 234.402344 133.179688 221.28125 " fill-opacity="1" fill-rule="nonzero"/><path fill="#286291" d="M 140.964844 234.445312 C 133.011719 231.746094 130.476562 230.15625 127.476562 227.390625 C 130.230469 230.425781 130.34375 230.527344 136.214844 235.722656 L 136.332031 235.816406 C 155.496094 249.820312 223.398438 250.003906 244.535156 232.191406 L 245.371094 231.398438 C 235.550781 240.691406 179.15625 245.792969 140.964844 234.445312 " fill-opacity="1" fill-rule="nonzero"/><path fill="#286291" d="M 151.167969 244.351562 C 146.949219 242.914062 145.957031 242.476562 142.984375 240.742188 C 144.433594 241.699219 146.4375 242.867188 147.917969 243.773438 C 149.996094 244.902344 152.816406 246.308594 154.949219 247.335938 C 173.199219 254.757812 208.523438 253.6875 226.265625 245.167969 L 229.402344 243.445312 C 216.714844 250.300781 177.335938 252.101562 151.167969 244.351562 " fill-opacity="1" fill-rule="nonzero"/><path fill="#6ed0eb" d="M 152.953125 98.300781 C 163.753906 93.445312 179.171875 92.199219 187.402344 91.890625 C 177.597656 91.660156 169.132812 92.546875 162.242188 94.527344 C 160.726562 95.066406 158.714844 95.804688 157.21875 96.394531 C 155.855469 97 154.027344 97.78125 152.683594 98.425781 C 152.765625 98.390625 152.871094 98.335938 152.953125 98.300781 " fill-opacity="1" fill-rule="nonzero"/><path fill="#6ed0eb" d="M 135.316406 109.796875 C 143.886719 103.460938 163.179688 98.945312 186.921875 97.714844 C 181.664062 97.515625 154.792969 96.90625 142.234375 104.472656 C 139.804688 106.253906 136.613281 108.699219 134.292969 110.621094 C 134.601562 110.375 135 110.03125 135.316406 109.796875 " fill-opacity="1" fill-rule="nonzero"/><path fill="#6ed0eb" d="M 124.082031 122.453125 C 134.605469 114.625 157.355469 109.132812 186.511719 107.382812 C 163.117188 106.300781 135.210938 109.496094 127.148438 117.695312 L 123.714844 121.792969 L 120.730469 125.84375 C 122.214844 124.050781 122.660156 123.511719 124.082031 122.453125 " fill-opacity="1" fill-rule="nonzero"/><path fill="#6ed0eb" d="M 112.128906 142.203125 C 116.917969 134.15625 139.1875 123.644531 186.1875 120.503906 C 156.296875 118.921875 121.8125 123.492188 115.839844 133.878906 C 114.4375 136.777344 112.636719 140.675781 111.425781 143.660156 C 111.636719 143.222656 111.882812 142.621094 112.128906 142.203125 " fill-opacity="1" fill-rule="nonzero"/><g clip-path="url(#1d4d4fd467)"><path fill="#6ed0eb" d="M 107.855469 160.128906 C 112.988281 151.210938 136.207031 140.375 185.972656 136.707031 C 151.484375 134.640625 112.203125 140.441406 108.710938 152.367188 L 107.4375 158.382812 L 106.726562 163.457031 C 106.972656 162.433594 107.328125 161.042969 107.855469 160.128906 " fill-opacity="1" fill-rule="nonzero"/></g><g clip-path="url(#026ddbe803)"><path fill="#6ed0eb" d="M 107.09375 184.167969 C 106.152344 170.859375 137.820312 159.339844 185.886719 155.5 C 148.542969 153.035156 106.550781 159.816406 106.246094 172.582031 C 106.398438 176.09375 106.703125 180.773438 107.105469 184.265625 L 107.09375 184.167969 " fill-opacity="1" fill-rule="nonzero"/></g><path fill="#6ed0eb" d="M 111.996094 202.023438 C 110.507812 192 133.011719 179.226562 185.949219 174.863281 C 148.207031 172.289062 106.292969 179.546875 108.8125 192.769531 C 109.785156 196.019531 111.179688 200.324219 112.375 203.496094 L 112.480469 203.753906 C 112.335938 203.234375 112.074219 202.554688 111.996094 202.023438 " fill-opacity="1" fill-rule="nonzero"/><path fill="#6ed0eb" d="M 120.894531 217.910156 C 119.644531 206.683594 145.253906 197.144531 186.136719 193.601562 C 149.542969 190.953125 110.015625 198.574219 116.054688 211.253906 L 118.464844 215.417969 C 119.628906 217.148438 121.132812 219.488281 122.367188 221.167969 C 121.269531 219.359375 121.007812 218.929688 120.894531 217.910156 " fill-opacity="1" fill-rule="nonzero"/><path fill="#6ed0eb" d="M 135.148438 234.722656 C 127.289062 226.296875 142.597656 215.125 186.449219 211.023438 C 152.8125 208.359375 118.171875 215.816406 127.476562 227.390625 C 133.070312 233.132812 133.070312 233.132812 136.214844 235.722656 L 136.332031 235.816406 C 135.976562 235.488281 135.476562 235.078125 135.148438 234.722656 " fill-opacity="1" fill-rule="nonzero"/><path fill="#6ed0eb" d="M 153.351562 246.566406 C 143.964844 241.578125 148.210938 234.984375 163.679688 230.527344 C 172.664062 227.9375 183.351562 226.808594 186.863281 226.4375 C 159.265625 223.921875 133.402344 230.90625 140.742188 238.894531 C 141.332031 239.535156 142.28125 240.230469 142.984375 240.742188 C 144.464844 241.652344 146.410156 242.914062 147.917969 243.773438 C 150.003906 244.882812 152.808594 246.328125 154.945312 247.335938 C 154.46875 247.105469 153.820312 246.816406 153.351562 246.566406 " fill-opacity="1" fill-rule="nonzero"/><path fill="#6ed0eb" d="M 167.152344 245.269531 C 169.898438 242.535156 176.777344 240.558594 187.371094 239.152344 C 171.238281 237.25 150.96875 241.667969 156.480469 246.894531 C 159.507812 249.761719 167.335938 250.6875 167.714844 250.785156 C 164.839844 249.6875 164.222656 248.1875 167.152344 245.269531 " fill-opacity="1" fill-rule="nonzero"/><g fill="#000000" fill-opacity="1"><g transform="translate(74.520527, 327.752206)"><g><path d="M 2.375 0 L 0.109375 0 L 4.140625 -11.4375 L 6.515625 -11.4375 L 10.546875 0 L 8.28125 0 L 7.5 -2.359375 L 3.140625 -2.359375 Z M 5.328125 -9.09375 L 3.75 -4.25 L 6.90625 -4.25 Z M 5.328125 -9.09375 "/></g></g></g><g fill="#000000" fill-opacity="1"><g transform="translate(86.566078, 327.752206)"><g><path d="M 3.859375 0.171875 C 2.554688 0.171875 1.679688 -0.296875 1.234375 -1.234375 C 1.097656 -1.515625 1.003906 -1.820312 0.953125 -2.15625 C 0.898438 -2.488281 0.875 -2.957031 0.875 -3.5625 L 0.875 -8.421875 L 2.890625 -8.421875 L 2.890625 -3.5625 C 2.890625 -3.125 2.921875 -2.769531 2.984375 -2.5 C 3.054688 -2.238281 3.160156 -2.03125 3.296875 -1.875 C 3.535156 -1.625 3.890625 -1.5 4.359375 -1.5 C 4.941406 -1.5 5.375 -1.671875 5.65625 -2.015625 C 5.820312 -2.210938 5.941406 -2.476562 6.015625 -2.8125 C 6.097656 -3.144531 6.140625 -3.585938 6.140625 -4.140625 L 6.140625 -8.421875 L 8.15625 -8.421875 L 8.15625 0 L 6.140625 0 L 6.140625 -1.0625 C 5.828125 -0.632812 5.492188 -0.320312 5.140625 -0.125 C 4.785156 0.0703125 4.359375 0.171875 3.859375 0.171875 Z M 3.859375 0.171875 "/></g></g></g><g fill="#000000" fill-opacity="1"><g transform="translate(97.051639, 327.752206)"><g><path d="M 5.21875 0 L 3.5625 0 C 2.9375 0 2.453125 -0.144531 2.109375 -0.4375 C 1.765625 -0.726562 1.59375 -1.195312 1.59375 -1.84375 L 1.59375 -6.796875 L 0.34375 -6.796875 L 0.34375 -8.421875 L 1.59375 -8.421875 L 1.59375 -11.4375 L 3.609375 -11.4375 L 3.609375 -8.421875 L 5.234375 -8.421875 L 5.234375 -6.796875 L 3.609375 -6.796875 L 3.609375 -2.453125 C 3.609375 -2.234375 3.644531 -2.050781 3.71875 -1.90625 C 3.800781 -1.757812 4 -1.6875 4.3125 -1.6875 L 5.21875 -1.6875 Z M 5.21875 0 "/></g></g></g><g fill="#000000" fill-opacity="1"><g transform="translate(104.192194, 327.752206)"><g><path d="M 4.875 0.171875 C 4.03125 0.171875 3.285156 -0.0078125 2.640625 -0.375 C 1.992188 -0.75 1.484375 -1.269531 1.109375 -1.9375 C 0.742188 -2.601562 0.5625 -3.378906 0.5625 -4.265625 C 0.5625 -5.109375 0.742188 -5.851562 1.109375 -6.5 C 1.484375 -7.15625 1.988281 -7.664062 2.625 -8.03125 C 3.269531 -8.40625 4.019531 -8.59375 4.875 -8.59375 C 5.726562 -8.59375 6.476562 -8.40625 7.125 -8.03125 C 7.769531 -7.664062 8.273438 -7.15625 8.640625 -6.5 C 9.003906 -5.851562 9.1875 -5.109375 9.1875 -4.265625 C 9.1875 -3.390625 9.003906 -2.617188 8.640625 -1.953125 C 8.285156 -1.285156 7.785156 -0.765625 7.140625 -0.390625 C 6.492188 -0.015625 5.738281 0.171875 4.875 0.171875 Z M 4.875 -1.578125 C 5.53125 -1.578125 6.0625 -1.828125 6.46875 -2.328125 C 6.882812 -2.828125 7.09375 -3.472656 7.09375 -4.265625 C 7.09375 -4.765625 7 -5.207031 6.8125 -5.59375 C 6.632812 -5.988281 6.378906 -6.296875 6.046875 -6.515625 C 5.710938 -6.742188 5.320312 -6.859375 4.875 -6.859375 C 4.445312 -6.859375 4.0625 -6.742188 3.71875 -6.515625 C 3.375 -6.296875 3.109375 -5.992188 2.921875 -5.609375 C 2.734375 -5.222656 2.640625 -4.773438 2.640625 -4.265625 C 2.640625 -3.460938 2.847656 -2.8125 3.265625 -2.3125 C 3.691406 -1.820312 4.226562 -1.578125 4.875 -1.578125 Z M 4.875 -1.578125 "/></g></g></g><g fill="#000000" fill-opacity="1"><g transform="translate(115.367752, 327.752206)"><g><path d="M 2.9375 0 L 0.921875 0 L 0.921875 -8.421875 L 2.9375 -8.421875 L 2.9375 -7.34375 C 3.269531 -7.8125 3.628906 -8.132812 4.015625 -8.3125 C 4.398438 -8.5 4.804688 -8.59375 5.234375 -8.59375 C 5.785156 -8.59375 6.257812 -8.476562 6.65625 -8.25 C 7.050781 -8.03125 7.3125 -7.695312 7.4375 -7.25 C 7.71875 -7.71875 8.0625 -8.054688 8.46875 -8.265625 C 8.882812 -8.484375 9.367188 -8.59375 9.921875 -8.59375 C 10.867188 -8.59375 11.5625 -8.316406 12 -7.765625 C 12.445312 -7.210938 12.671875 -6.460938 12.671875 -5.515625 L 12.671875 0 L 10.65625 0 L 10.65625 -5.265625 C 10.65625 -5.847656 10.539062 -6.269531 10.3125 -6.53125 C 10.082031 -6.800781 9.753906 -6.9375 9.328125 -6.9375 C 9.109375 -6.9375 8.910156 -6.894531 8.734375 -6.8125 C 8.566406 -6.738281 8.429688 -6.644531 8.328125 -6.53125 C 8.140625 -6.300781 8.003906 -6.019531 7.921875 -5.6875 C 7.847656 -5.351562 7.8125 -4.941406 7.8125 -4.453125 L 7.8125 0 L 5.796875 0 L 5.796875 -5.265625 C 5.796875 -5.835938 5.675781 -6.257812 5.4375 -6.53125 C 5.195312 -6.800781 4.867188 -6.9375 4.453125 -6.9375 C 4.035156 -6.9375 3.695312 -6.789062 3.4375 -6.5 C 3.269531 -6.300781 3.144531 -6.046875 3.0625 -5.734375 C 2.976562 -5.421875 2.9375 -4.992188 2.9375 -4.453125 Z M 2.9375 0 "/></g></g></g><g fill="#000000" fill-opacity="1"><g transform="translate(130.308302, 327.752206)"><g><path d="M 3.34375 0.171875 C 2.550781 0.171875 1.890625 -0.0390625 1.359375 -0.46875 C 0.835938 -0.894531 0.578125 -1.507812 0.578125 -2.3125 C 0.578125 -2.757812 0.664062 -3.140625 0.84375 -3.453125 C 1.019531 -3.773438 1.253906 -4.035156 1.546875 -4.234375 C 1.816406 -4.421875 2.125 -4.566406 2.46875 -4.671875 C 2.8125 -4.785156 3.160156 -4.878906 3.515625 -4.953125 L 6.015625 -5.421875 C 5.992188 -5.929688 5.859375 -6.320312 5.609375 -6.59375 C 5.359375 -6.863281 4.984375 -7 4.484375 -7 C 4.109375 -7 3.769531 -6.882812 3.46875 -6.65625 C 3.175781 -6.4375 2.988281 -6.128906 2.90625 -5.734375 L 0.90625 -5.734375 C 1 -6.390625 1.222656 -6.925781 1.578125 -7.34375 C 1.941406 -7.769531 2.378906 -8.082031 2.890625 -8.28125 C 3.410156 -8.488281 3.945312 -8.59375 4.5 -8.59375 C 4.988281 -8.59375 5.457031 -8.519531 5.90625 -8.375 C 6.351562 -8.238281 6.734375 -8.023438 7.046875 -7.734375 C 7.378906 -7.453125 7.613281 -7.125 7.75 -6.75 C 7.894531 -6.375 7.976562 -5.984375 8 -5.578125 C 8.03125 -5.171875 8.046875 -4.769531 8.046875 -4.375 L 8.046875 0 L 6.015625 0 L 6.015625 -1.140625 C 5.804688 -0.765625 5.550781 -0.484375 5.25 -0.296875 C 4.988281 -0.128906 4.695312 -0.0078125 4.375 0.0625 C 4.050781 0.132812 3.707031 0.171875 3.34375 0.171875 Z M 3.84375 -1.421875 C 4.238281 -1.421875 4.597656 -1.503906 4.921875 -1.671875 C 5.359375 -1.890625 5.65625 -2.179688 5.8125 -2.546875 C 5.96875 -2.921875 6.050781 -3.382812 6.0625 -3.9375 L 4.046875 -3.53125 C 3.753906 -3.476562 3.515625 -3.410156 3.328125 -3.328125 C 3.148438 -3.242188 3 -3.148438 2.875 -3.046875 C 2.800781 -2.960938 2.738281 -2.863281 2.6875 -2.75 C 2.632812 -2.644531 2.609375 -2.523438 2.609375 -2.390625 C 2.609375 -2.078125 2.722656 -1.835938 2.953125 -1.671875 C 3.191406 -1.503906 3.488281 -1.421875 3.84375 -1.421875 Z M 3.84375 -1.421875 "/></g></g></g><g fill="#000000" fill-opacity="1"><g transform="translate(140.568862, 327.752206)"><g><path d="M 5.21875 0 L 3.5625 0 C 2.9375 0 2.453125 -0.144531 2.109375 -0.4375 C 1.765625 -0.726562 1.59375 -1.195312 1.59375 -1.84375 L 1.59375 -6.796875 L 0.34375 -6.796875 L 0.34375 -8.421875 L 1.59375 -8.421875 L 1.59375 -11.4375 L 3.609375 -11.4375 L 3.609375 -8.421875 L 5.234375 -8.421875 L 5.234375 -6.796875 L 3.609375 -6.796875 L 3.609375 -2.453125 C 3.609375 -2.234375 3.644531 -2.050781 3.71875 -1.90625 C 3.800781 -1.757812 4 -1.6875 4.3125 -1.6875 L 5.21875 -1.6875 Z M 5.21875 0 "/></g></g></g><g fill="#000000" fill-opacity="1"><g transform="translate(147.70942, 327.752206)"><g><path d="M 1.9375 -9.34375 C 1.59375 -9.34375 1.296875 -9.445312 1.046875 -9.65625 C 0.804688 -9.863281 0.6875 -10.144531 0.6875 -10.5 C 0.6875 -10.84375 0.804688 -11.117188 1.046875 -11.328125 C 1.296875 -11.546875 1.59375 -11.65625 1.9375 -11.65625 C 2.269531 -11.65625 2.5625 -11.546875 2.8125 -11.328125 C 3.0625 -11.117188 3.1875 -10.84375 3.1875 -10.5 C 3.1875 -10.144531 3.0625 -9.863281 2.8125 -9.65625 C 2.5625 -9.445312 2.269531 -9.34375 1.9375 -9.34375 Z M 2.9375 0 L 0.921875 0 L 0.921875 -8.421875 L 2.9375 -8.421875 Z M 2.9375 0 "/></g></g></g><g fill="#000000" fill-opacity="1"><g transform="translate(152.974978, 327.752206)"><g><path d="M 4.875 0.171875 C 4.03125 0.171875 3.285156 -0.0078125 2.640625 -0.375 C 1.992188 -0.75 1.484375 -1.269531 1.109375 -1.9375 C 0.742188 -2.601562 0.5625 -3.378906 0.5625 -4.265625 C 0.5625 -5.109375 0.742188 -5.851562 1.109375 -6.5 C 1.484375 -7.15625 1.988281 -7.664062 2.625 -8.03125 C 3.269531 -8.40625 4.019531 -8.59375 4.875 -8.59375 C 5.726562 -8.59375 6.476562 -8.40625 7.125 -8.03125 C 7.769531 -7.664062 8.273438 -7.15625 8.640625 -6.5 C 9.003906 -5.851562 9.1875 -5.109375 9.1875 -4.265625 C 9.1875 -3.390625 9.003906 -2.617188 8.640625 -1.953125 C 8.285156 -1.285156 7.785156 -0.765625 7.140625 -0.390625 C 6.492188 -0.015625 5.738281 0.171875 4.875 0.171875 Z M 4.875 -1.578125 C 5.53125 -1.578125 6.0625 -1.828125 6.46875 -2.328125 C 6.882812 -2.828125 7.09375 -3.472656 7.09375 -4.265625 C 7.09375 -4.765625 7 -5.207031 6.8125 -5.59375 C 6.632812 -5.988281 6.378906 -6.296875 6.046875 -6.515625 C 5.710938 -6.742188 5.320312 -6.859375 4.875 -6.859375 C 4.445312 -6.859375 4.0625 -6.742188 3.71875 -6.515625 C 3.375 -6.296875 3.109375 -5.992188 2.921875 -5.609375 C 2.734375 -5.222656 2.640625 -4.773438 2.640625 -4.265625 C 2.640625 -3.460938 2.847656 -2.8125 3.265625 -2.3125 C 3.691406 -1.820312 4.226562 -1.578125 4.875 -1.578125 Z M 4.875 -1.578125 "/></g></g></g><g fill="#000000" fill-opacity="1"><g transform="translate(164.150539, 327.752206)"><g><path d="M 2.9375 0 L 0.921875 0 L 0.921875 -8.421875 L 2.9375 -8.421875 L 2.9375 -7.34375 C 3.28125 -7.820312 3.632812 -8.148438 4 -8.328125 C 4.375 -8.503906 4.785156 -8.59375 5.234375 -8.59375 C 6.003906 -8.59375 6.585938 -8.453125 6.984375 -8.171875 C 7.378906 -7.898438 7.671875 -7.570312 7.859375 -7.1875 C 8.023438 -6.8125 8.125 -6.429688 8.15625 -6.046875 C 8.1875 -5.660156 8.203125 -5.257812 8.203125 -4.84375 L 8.203125 0 L 6.1875 0 L 6.1875 -4.875 C 6.1875 -5.300781 6.148438 -5.644531 6.078125 -5.90625 C 6.015625 -6.175781 5.914062 -6.394531 5.78125 -6.5625 C 5.539062 -6.8125 5.179688 -6.9375 4.703125 -6.9375 C 4.140625 -6.9375 3.71875 -6.765625 3.4375 -6.421875 C 3.269531 -6.222656 3.144531 -5.957031 3.0625 -5.625 C 2.976562 -5.289062 2.9375 -4.847656 2.9375 -4.296875 Z M 2.9375 0 "/></g></g></g><g fill="#000000" fill-opacity="1"><g transform="translate(174.622083, 327.752206)"><g/></g></g><g fill="#000000" fill-opacity="1"><g transform="translate(180.037648, 327.752206)"><g/></g></g><g fill="#000000" fill-opacity="1"><g transform="translate(185.461926, 327.752206)"><g><path d="M 8.65625 0 L 1.015625 0 L 1.015625 -11.4375 L 8.65625 -11.4375 L 8.65625 -9.515625 L 3.1875 -9.515625 L 3.1875 -6.6875 L 8.078125 -6.6875 L 8.078125 -4.765625 L 3.1875 -4.765625 L 3.1875 -1.9375 L 8.65625 -1.9375 Z M 8.65625 0 "/></g></g></g><g fill="#000000" fill-opacity="1"><g transform="translate(196.172477, 327.752206)"><g><path d="M 4.84375 0.171875 C 4 0.171875 3.253906 -0.0078125 2.609375 -0.375 C 1.972656 -0.75 1.472656 -1.269531 1.109375 -1.9375 C 0.742188 -2.601562 0.5625 -3.378906 0.5625 -4.265625 C 0.5625 -5.109375 0.742188 -5.851562 1.109375 -6.5 C 1.472656 -7.15625 1.972656 -7.664062 2.609375 -8.03125 C 3.242188 -8.40625 3.988281 -8.59375 4.84375 -8.59375 C 5.851562 -8.59375 6.707031 -8.332031 7.40625 -7.8125 C 8.113281 -7.289062 8.578125 -6.597656 8.796875 -5.734375 L 6.578125 -5.734375 C 6.316406 -6.535156 5.738281 -6.9375 4.84375 -6.9375 C 4.195312 -6.9375 3.664062 -6.691406 3.25 -6.203125 C 2.84375 -5.710938 2.640625 -5.066406 2.640625 -4.265625 C 2.640625 -3.421875 2.84375 -2.742188 3.25 -2.234375 C 3.664062 -1.734375 4.195312 -1.484375 4.84375 -1.484375 C 5.332031 -1.484375 5.726562 -1.601562 6.03125 -1.84375 C 6.332031 -2.082031 6.53125 -2.410156 6.625 -2.828125 L 8.8125 -2.828125 C 8.6875 -2.203125 8.4375 -1.664062 8.0625 -1.21875 C 7.695312 -0.769531 7.234375 -0.425781 6.671875 -0.1875 C 6.117188 0.0507812 5.507812 0.171875 4.84375 0.171875 Z M 4.84375 0.171875 "/></g></g></g><g fill="#000000" fill-opacity="1"><g transform="translate(206.883029, 327.752206)"><g><path d="M 4.875 0.171875 C 4.03125 0.171875 3.285156 -0.0078125 2.640625 -0.375 C 1.992188 -0.75 1.484375 -1.269531 1.109375 -1.9375 C 0.742188 -2.601562 0.5625 -3.378906 0.5625 -4.265625 C 0.5625 -5.109375 0.742188 -5.851562 1.109375 -6.5 C 1.484375 -7.15625 1.988281 -7.664062 2.625 -8.03125 C 3.269531 -8.40625 4.019531 -8.59375 4.875 -8.59375 C 5.726562 -8.59375 6.476562 -8.40625 7.125 -8.03125 C 7.769531 -7.664062 8.273438 -7.15625 8.640625 -6.5 C 9.003906 -5.851562 9.1875 -5.109375 9.1875 -4.265625 C 9.1875 -3.390625 9.003906 -2.617188 8.640625 -1.953125 C 8.285156 -1.285156 7.785156 -0.765625 7.140625 -0.390625 C 6.492188 -0.015625 5.738281 0.171875 4.875 0.171875 Z M 4.875 -1.578125 C 5.53125 -1.578125 6.0625 -1.828125 6.46875 -2.328125 C 6.882812 -2.828125 7.09375 -3.472656 7.09375 -4.265625 C 7.09375 -4.765625 7 -5.207031 6.8125 -5.59375 C 6.632812 -5.988281 6.378906 -6.296875 6.046875 -6.515625 C 5.710938 -6.742188 5.320312 -6.859375 4.875 -6.859375 C 4.445312 -6.859375 4.0625 -6.742188 3.71875 -6.515625 C 3.375 -6.296875 3.109375 -5.992188 2.921875 -5.609375 C 2.734375 -5.222656 2.640625 -4.773438 2.640625 -4.265625 C 2.640625 -3.460938 2.847656 -2.8125 3.265625 -2.3125 C 3.691406 -1.820312 4.226562 -1.578125 4.875 -1.578125 Z M 4.875 -1.578125 "/></g></g></g><g fill="#000000" fill-opacity="1"><g transform="translate(218.058588, 327.752206)"><g><path d="M 2.9375 0 L 0.921875 0 L 0.921875 -8.421875 L 2.9375 -8.421875 L 2.9375 -7.34375 C 3.269531 -7.8125 3.628906 -8.132812 4.015625 -8.3125 C 4.398438 -8.5 4.804688 -8.59375 5.234375 -8.59375 C 5.785156 -8.59375 6.257812 -8.476562 6.65625 -8.25 C 7.050781 -8.03125 7.3125 -7.695312 7.4375 -7.25 C 7.71875 -7.71875 8.0625 -8.054688 8.46875 -8.265625 C 8.882812 -8.484375 9.367188 -8.59375 9.921875 -8.59375 C 10.867188 -8.59375 11.5625 -8.316406 12 -7.765625 C 12.445312 -7.210938 12.671875 -6.460938 12.671875 -5.515625 L 12.671875 0 L 10.65625 0 L 10.65625 -5.265625 C 10.65625 -5.847656 10.539062 -6.269531 10.3125 -6.53125 C 10.082031 -6.800781 9.753906 -6.9375 9.328125 -6.9375 C 9.109375 -6.9375 8.910156 -6.894531 8.734375 -6.8125 C 8.566406 -6.738281 8.429688 -6.644531 8.328125 -6.53125 C 8.140625 -6.300781 8.003906 -6.019531 7.921875 -5.6875 C 7.847656 -5.351562 7.8125 -4.941406 7.8125 -4.453125 L 7.8125 0 L 5.796875 0 L 5.796875 -5.265625 C 5.796875 -5.835938 5.675781 -6.257812 5.4375 -6.53125 C 5.195312 -6.800781 4.867188 -6.9375 4.453125 -6.9375 C 4.035156 -6.9375 3.695312 -6.789062 3.4375 -6.5 C 3.269531 -6.300781 3.144531 -6.046875 3.0625 -5.734375 C 2.976562 -5.421875 2.9375 -4.992188 2.9375 -4.453125 Z M 2.9375 0 "/></g></g></g><g fill="#000000" fill-opacity="1"><g transform="translate(233.004895, 327.752206)"><g/></g></g><g fill="#000000" fill-opacity="1"><g transform="translate(238.42046, 327.752206)"><g/></g></g><g fill="#000000" fill-opacity="1"><g transform="translate(243.844735, 327.752206)"><g><path d="M 6.171875 0.203125 C 5.203125 0.203125 4.367188 0.046875 3.671875 -0.265625 C 2.972656 -0.585938 2.394531 -1.03125 1.9375 -1.59375 C 1.476562 -2.15625 1.132812 -2.789062 0.90625 -3.5 C 0.6875 -4.207031 0.578125 -4.953125 0.578125 -5.734375 C 0.578125 -6.515625 0.6875 -7.257812 0.90625 -7.96875 C 1.132812 -8.675781 1.476562 -9.304688 1.9375 -9.859375 C 2.394531 -10.410156 2.972656 -10.847656 3.671875 -11.171875 C 4.367188 -11.492188 5.203125 -11.65625 6.171875 -11.65625 C 7.648438 -11.65625 8.828125 -11.304688 9.703125 -10.609375 C 10.578125 -9.910156 11.128906 -8.992188 11.359375 -7.859375 L 8.984375 -7.859375 C 8.796875 -8.453125 8.46875 -8.910156 8 -9.234375 C 7.53125 -9.554688 6.914062 -9.71875 6.15625 -9.71875 C 5.425781 -9.71875 4.8125 -9.539062 4.3125 -9.1875 C 3.820312 -8.84375 3.453125 -8.367188 3.203125 -7.765625 C 2.953125 -7.171875 2.828125 -6.5 2.828125 -5.75 C 2.828125 -4.976562 2.957031 -4.289062 3.21875 -3.6875 C 3.476562 -3.082031 3.867188 -2.601562 4.390625 -2.25 C 4.910156 -1.894531 5.5625 -1.71875 6.34375 -1.71875 C 7.238281 -1.71875 7.953125 -1.945312 8.484375 -2.40625 C 9.015625 -2.863281 9.289062 -3.539062 9.3125 -4.4375 L 6.78125 -4.4375 L 6.78125 -6.21875 L 11.453125 -6.21875 L 11.453125 0 L 9.5 0 L 9.5 -1.296875 C 9.09375 -0.722656 8.585938 -0.328125 7.984375 -0.109375 C 7.378906 0.0976562 6.773438 0.203125 6.171875 0.203125 Z M 6.171875 0.203125 "/></g></g></g><g fill="#000000" fill-opacity="1"><g transform="translate(257.525292, 327.752206)"><g><path d="M 4.140625 0 L 2.828125 0 C 2.210938 0 1.734375 -0.144531 1.390625 -0.4375 C 1.054688 -0.726562 0.890625 -1.195312 0.890625 -1.84375 L 0.890625 -11.4375 L 2.90625 -11.4375 L 2.90625 -2.4375 C 2.90625 -2.164062 2.957031 -1.972656 3.0625 -1.859375 C 3.164062 -1.742188 3.34375 -1.6875 3.59375 -1.6875 L 4.140625 -1.6875 Z M 4.140625 0 "/></g></g></g><g fill="#000000" fill-opacity="1"><g transform="translate(263.450852, 327.752206)"><g><path d="M 4.875 0.171875 C 4.03125 0.171875 3.285156 -0.0078125 2.640625 -0.375 C 1.992188 -0.75 1.484375 -1.269531 1.109375 -1.9375 C 0.742188 -2.601562 0.5625 -3.378906 0.5625 -4.265625 C 0.5625 -5.109375 0.742188 -5.851562 1.109375 -6.5 C 1.484375 -7.15625 1.988281 -7.664062 2.625 -8.03125 C 3.269531 -8.40625 4.019531 -8.59375 4.875 -8.59375 C 5.726562 -8.59375 6.476562 -8.40625 7.125 -8.03125 C 7.769531 -7.664062 8.273438 -7.15625 8.640625 -6.5 C 9.003906 -5.851562 9.1875 -5.109375 9.1875 -4.265625 C 9.1875 -3.390625 9.003906 -2.617188 8.640625 -1.953125 C 8.285156 -1.285156 7.785156 -0.765625 7.140625 -0.390625 C 6.492188 -0.015625 5.738281 0.171875 4.875 0.171875 Z M 4.875 -1.578125 C 5.53125 -1.578125 6.0625 -1.828125 6.46875 -2.328125 C 6.882812 -2.828125 7.09375 -3.472656 7.09375 -4.265625 C 7.09375 -4.765625 7 -5.207031 6.8125 -5.59375 C 6.632812 -5.988281 6.378906 -6.296875 6.046875 -6.515625 C 5.710938 -6.742188 5.320312 -6.859375 4.875 -6.859375 C 4.445312 -6.859375 4.0625 -6.742188 3.71875 -6.515625 C 3.375 -6.296875 3.109375 -5.992188 2.921875 -5.609375 C 2.734375 -5.222656 2.640625 -4.773438 2.640625 -4.265625 C 2.640625 -3.460938 2.847656 -2.8125 3.265625 -2.3125 C 3.691406 -1.820312 4.226562 -1.578125 4.875 -1.578125 Z M 4.875 -1.578125 "/></g></g></g><g fill="#000000" fill-opacity="1"><g transform="translate(274.62641, 327.752206)"><g><path d="M 5.34375 0.171875 C 4.851562 0.171875 4.414062 0.0820312 4.03125 -0.09375 C 3.65625 -0.269531 3.296875 -0.59375 2.953125 -1.0625 L 2.953125 0 L 0.9375 0 L 0.9375 -11.4375 L 2.953125 -11.4375 L 2.953125 -7.34375 C 3.296875 -7.820312 3.65625 -8.148438 4.03125 -8.328125 C 4.414062 -8.503906 4.851562 -8.59375 5.34375 -8.59375 C 6.082031 -8.59375 6.726562 -8.40625 7.28125 -8.03125 C 7.832031 -7.664062 8.265625 -7.148438 8.578125 -6.484375 C 8.890625 -5.828125 9.046875 -5.070312 9.046875 -4.21875 C 9.046875 -3.351562 8.890625 -2.585938 8.578125 -1.921875 C 8.265625 -1.265625 7.832031 -0.75 7.28125 -0.375 C 6.726562 -0.0078125 6.082031 0.171875 5.34375 0.171875 Z M 4.875 -1.578125 C 5.519531 -1.578125 6.035156 -1.828125 6.421875 -2.328125 C 6.804688 -2.828125 7 -3.457031 7 -4.21875 C 7 -4.988281 6.804688 -5.617188 6.421875 -6.109375 C 6.035156 -6.609375 5.519531 -6.859375 4.875 -6.859375 C 4.238281 -6.859375 3.71875 -6.613281 3.3125 -6.125 C 2.90625 -5.632812 2.703125 -5 2.703125 -4.21875 C 2.703125 -3.4375 2.90625 -2.800781 3.3125 -2.3125 C 3.71875 -1.820312 4.238281 -1.578125 4.875 -1.578125 Z M 4.875 -1.578125 "/></g></g></g><g fill="#000000" fill-opacity="1"><g transform="translate(285.666963, 327.752206)"><g><path d="M 3.34375 0.171875 C 2.550781 0.171875 1.890625 -0.0390625 1.359375 -0.46875 C 0.835938 -0.894531 0.578125 -1.507812 0.578125 -2.3125 C 0.578125 -2.757812 0.664062 -3.140625 0.84375 -3.453125 C 1.019531 -3.773438 1.253906 -4.035156 1.546875 -4.234375 C 1.816406 -4.421875 2.125 -4.566406 2.46875 -4.671875 C 2.8125 -4.785156 3.160156 -4.878906 3.515625 -4.953125 L 6.015625 -5.421875 C 5.992188 -5.929688 5.859375 -6.320312 5.609375 -6.59375 C 5.359375 -6.863281 4.984375 -7 4.484375 -7 C 4.109375 -7 3.769531 -6.882812 3.46875 -6.65625 C 3.175781 -6.4375 2.988281 -6.128906 2.90625 -5.734375 L 0.90625 -5.734375 C 1 -6.390625 1.222656 -6.925781 1.578125 -7.34375 C 1.941406 -7.769531 2.378906 -8.082031 2.890625 -8.28125 C 3.410156 -8.488281 3.945312 -8.59375 4.5 -8.59375 C 4.988281 -8.59375 5.457031 -8.519531 5.90625 -8.375 C 6.351562 -8.238281 6.734375 -8.023438 7.046875 -7.734375 C 7.378906 -7.453125 7.613281 -7.125 7.75 -6.75 C 7.894531 -6.375 7.976562 -5.984375 8 -5.578125 C 8.03125 -5.171875 8.046875 -4.769531 8.046875 -4.375 L 8.046875 0 L 6.015625 0 L 6.015625 -1.140625 C 5.804688 -0.765625 5.550781 -0.484375 5.25 -0.296875 C 4.988281 -0.128906 4.695312 -0.0078125 4.375 0.0625 C 4.050781 0.132812 3.707031 0.171875 3.34375 0.171875 Z M 3.84375 -1.421875 C 4.238281 -1.421875 4.597656 -1.503906 4.921875 -1.671875 C 5.359375 -1.890625 5.65625 -2.179688 5.8125 -2.546875 C 5.96875 -2.921875 6.050781 -3.382812 6.0625 -3.9375 L 4.046875 -3.53125 C 3.753906 -3.476562 3.515625 -3.410156 3.328125 -3.328125 C 3.148438 -3.242188 3 -3.148438 2.875 -3.046875 C 2.800781 -2.960938 2.738281 -2.863281 2.6875 -2.75 C 2.632812 -2.644531 2.609375 -2.523438 2.609375 -2.390625 C 2.609375 -2.078125 2.722656 -1.835938 2.953125 -1.671875 C 3.191406 -1.503906 3.488281 -1.421875 3.84375 -1.421875 Z M 3.84375 -1.421875 "/></g></g></g><g fill="#000000" fill-opacity="1"><g transform="translate(295.92752, 327.752206)"><g><path d="M 4.140625 0 L 2.828125 0 C 2.210938 0 1.734375 -0.144531 1.390625 -0.4375 C 1.054688 -0.726562 0.890625 -1.195312 0.890625 -1.84375 L 0.890625 -11.4375 L 2.90625 -11.4375 L 2.90625 -2.4375 C 2.90625 -2.164062 2.957031 -1.972656 3.0625 -1.859375 C 3.164062 -1.742188 3.34375 -1.6875 3.59375 -1.6875 L 4.140625 -1.6875 Z M 4.140625 0 "/></g></g></g></svg>