<svg xmlns="http://www.w3.org/2000/svg" xmlns:xlink="http://www.w3.org/1999/xlink" width="500" zoomAndPan="magnify" viewBox="0 0 375 374.999991" height="500" preserveAspectRatio="xMidYMid meet" version="1.0"><defs><g/><clipPath id="26eddbc094"><path d="M 58.5 58.5 L 316.5 58.5 L 316.5 316.5 L 58.5 316.5 Z M 58.5 58.5 " clip-rule="nonzero"/></clipPath><clipPath id="a7ae6d7f19"><path d="M 187.5 316.5 C 153.058594 316.5 120.628906 303.09375 96.292969 278.707031 C 71.90625 254.371094 58.5 221.941406 58.5 187.5 C 58.5 153.058594 71.90625 120.628906 96.292969 96.292969 C 120.628906 71.90625 153.058594 58.5 187.5 58.5 C 221.941406 58.5 254.371094 71.90625 278.707031 96.292969 C 303.09375 120.679688 316.5 153.058594 316.5 187.5 C 316.5 221.941406 303.09375 254.371094 278.707031 278.707031 C 254.371094 303.09375 221.941406 316.5 187.5 316.5 Z M 187.5 66.234375 C 155.121094 66.234375 124.648438 78.867188 101.757812 101.757812 C 78.867188 124.648438 66.234375 155.121094 66.234375 187.5 C 66.234375 219.878906 78.867188 250.351562 101.757812 273.242188 C 124.648438 296.132812 155.121094 308.765625 187.5 308.765625 C 219.878906 308.765625 250.351562 296.132812 273.242188 273.242188 C 296.132812 250.351562 308.765625 219.878906 308.765625 187.5 C 308.765625 155.121094 296.132812 124.648438 273.242188 101.757812 C 250.351562 78.867188 219.878906 66.234375 187.5 66.234375 Z M 187.5 66.234375 " clip-rule="nonzero"/></clipPath><clipPath id="0b82a34e40"><path d="M 80.125 145.417969 L 294.625 145.417969 L 294.625 236.917969 L 80.125 236.917969 Z M 80.125 145.417969 " clip-rule="nonzero"/></clipPath><clipPath id="b2305f1af7"><path d="M 163 105.226562 L 208 105.226562 L 208 120 L 163 120 Z M 163 105.226562 " clip-rule="nonzero"/></clipPath><clipPath id="f5b589265d"><path d="M 106.152344 167 L 268 167 L 268 202 L 106.152344 202 Z M 106.152344 167 " clip-rule="nonzero"/></clipPath><clipPath id="cc8f2f7a73"><path d="M 106.152344 187 L 268.902344 187 L 268.902344 221 L 106.152344 221 Z M 106.152344 187 " clip-rule="nonzero"/></clipPath><clipPath id="969ca55d4c"><path d="M 106.152344 151 L 186 151 L 186 179 L 106.152344 179 Z M 106.152344 151 " clip-rule="nonzero"/></clipPath><clipPath id="ef695b073f"><path d="M 106.152344 170 L 186 170 L 186 200 L 106.152344 200 Z M 106.152344 170 " clip-rule="nonzero"/></clipPath></defs><rect x="-37.5" width="450" fill="#ffffff" y="-37.499999" height="449.999989" fill-opacity="1"/><rect x="-37.5" width="450" fill="#ffffff" y="-37.499999" height="449.999989" fill-opacity="1"/><g clip-path="url(#26eddbc094)"><g clip-path="url(#a7ae6d7f19)"><path fill="#112241" d="M 58.5 58.5 L 316.5 58.5 L 316.5 316.5 L 58.5 316.5 Z M 58.5 58.5 " fill-opacity="1" fill-rule="nonzero"/></g></g><g clip-path="url(#0b82a34e40)"><path fill="#112241" d="M 288.226562 216.128906 C 285.503906 225.394531 281.347656 234.191406 276.191406 242.289062 C 271.933594 248.878906 267.089844 255.074219 261.648438 260.707031 C 260.945312 261.476562 260.160156 262.167969 259.410156 262.894531 C 258.652344 263.605469 257.914062 264.34375 257.136719 265.039062 L 254.777344 267.089844 L 253.601562 268.117188 L 252.375 269.089844 L 249.933594 271.042969 C 249.105469 271.675781 248.25 272.273438 247.414062 272.890625 C 245.757812 274.160156 243.996094 275.277344 242.269531 276.449219 C 242.019531 276.617188 241.757812 276.792969 241.484375 276.976562 C 241.203125 277.144531 240.914062 277.320312 240.605469 277.503906 C 240 277.867188 239.34375 278.257812 238.644531 278.675781 C 237.265625 279.542969 235.636719 280.355469 233.875 281.292969 C 233.433594 281.523438 232.988281 281.769531 232.519531 281.996094 C 232.046875 282.214844 231.570312 282.4375 231.078125 282.664062 C 230.101562 283.117188 229.085938 283.585938 228.039062 284.070312 C 225.894531 284.90625 223.65625 285.914062 221.21875 286.695312 C 211.585938 290.1875 199.5625 292.347656 187.5 292.398438 C 175.433594 292.347656 163.414062 290.1875 153.78125 286.695312 C 151.339844 285.914062 149.101562 284.90625 146.957031 284.070312 C 145.910156 283.585938 144.898438 283.117188 143.917969 282.664062 C 143.429688 282.4375 142.949219 282.214844 142.476562 281.996094 C 142.007812 281.773438 141.566406 281.523438 141.121094 281.292969 C 139.363281 280.359375 137.730469 279.542969 136.351562 278.675781 C 135.652344 278.257812 135 277.867188 134.390625 277.503906 C 134.085938 277.320312 133.792969 277.144531 133.511719 276.976562 C 133.238281 276.792969 132.976562 276.617188 132.730469 276.449219 C 126.175781 272.15625 120.019531 267.277344 114.421875 261.796875 C 108.519531 255.898438 103.355469 249.292969 98.808594 242.289062 C 93.648438 234.191406 89.492188 225.394531 86.769531 216.128906 C 83.933594 206.890625 82.621094 197.195312 82.539062 187.5 C 82.621094 177.800781 83.933594 168.105469 86.769531 158.867188 C 89.492188 149.601562 93.648438 140.808594 98.804688 132.707031 C 103.0625 126.117188 107.90625 119.921875 113.347656 114.289062 C 114.050781 113.519531 114.835938 112.828125 115.585938 112.101562 C 116.34375 111.390625 117.082031 110.652344 117.859375 109.957031 L 120.21875 107.90625 L 121.398438 106.878906 L 122.621094 105.90625 L 125.0625 103.953125 C 125.890625 103.320312 126.746094 102.722656 127.582031 102.105469 C 129.238281 100.835938 131.003906 99.71875 132.726562 98.546875 C 132.976562 98.378906 133.238281 98.203125 133.511719 98.019531 C 133.792969 97.851562 134.085938 97.675781 134.390625 97.492188 C 134.996094 97.128906 135.652344 96.738281 136.351562 96.320312 C 137.730469 95.453125 139.359375 94.640625 141.121094 93.703125 C 141.566406 93.476562 142.007812 93.226562 142.476562 93 C 142.949219 92.78125 143.429688 92.558594 143.917969 92.332031 C 144.894531 91.878906 145.910156 91.410156 146.957031 90.925781 C 149.101562 90.089844 151.339844 89.082031 153.777344 88.300781 C 163.414062 84.808594 175.433594 82.648438 187.5 82.597656 C 199.5625 82.648438 211.585938 84.808594 221.214844 88.300781 C 223.65625 89.082031 225.894531 90.089844 228.039062 90.925781 C 229.085938 91.410156 230.097656 91.878906 231.078125 92.332031 C 231.566406 92.558594 232.046875 92.78125 232.519531 93 C 232.988281 93.222656 233.429688 93.476562 233.875 93.703125 C 235.632812 94.636719 237.265625 95.453125 238.644531 96.320312 C 239.34375 96.738281 239.996094 97.128906 240.605469 97.492188 C 240.910156 97.675781 241.203125 97.851562 241.484375 98.019531 C 241.757812 98.203125 242.019531 98.378906 242.265625 98.546875 C 248.820312 102.839844 254.976562 107.71875 260.574219 113.199219 C 266.476562 119.097656 271.640625 125.703125 276.1875 132.707031 C 281.347656 140.804688 285.503906 149.601562 288.226562 158.867188 C 291.0625 168.105469 292.375 177.800781 292.457031 187.5 C 292.375 197.195312 291.0625 206.890625 288.226562 216.128906 Z M 294.871094 187.425781 L 294.867188 187.417969 C 294.78125 177.519531 293.449219 167.613281 290.5625 158.164062 C 287.789062 148.691406 283.542969 139.699219 278.246094 131.4375 L 275.699219 127.609375 C 275.699219 127.609375 274.960938 126.582031 273.859375 125.039062 C 272.796875 123.460938 271.171875 121.519531 269.617188 119.523438 C 267.941406 117.628906 266.339844 115.671875 264.988281 114.335938 C 263.675781 112.964844 262.800781 112.054688 262.800781 112.054688 C 262.800781 112.054688 262.582031 111.828125 262.183594 111.445312 C 261.785156 111.0625 261.21875 110.511719 260.535156 109.855469 C 259.207031 108.5 257.273438 106.867188 255.382812 105.191406 C 254.410156 104.382812 253.410156 103.609375 252.484375 102.867188 C 252.023438 102.5 251.574219 102.140625 251.148438 101.804688 C 250.707031 101.484375 250.292969 101.1875 249.90625 100.910156 C 248.371094 99.796875 247.34375 99.058594 247.34375 99.058594 C 247.34375 99.058594 247.121094 98.878906 246.757812 98.644531 C 246.402344 98.40625 245.925781 98.085938 245.449219 97.765625 C 244.496094 97.128906 243.539062 96.488281 243.539062 96.488281 C 243.285156 96.316406 243.019531 96.136719 242.742188 95.949219 C 242.453125 95.773438 242.15625 95.59375 241.84375 95.40625 C 241.222656 95.03125 240.550781 94.628906 239.839844 94.203125 C 238.429688 93.3125 236.761719 92.476562 234.960938 91.515625 C 234.507812 91.28125 234.050781 91.023438 233.574219 90.796875 C 233.09375 90.570312 232.601562 90.339844 232.101562 90.109375 C 231.101562 89.644531 230.0625 89.164062 228.992188 88.667969 C 226.796875 87.804688 224.507812 86.777344 222.007812 85.972656 C 212.152344 82.390625 199.84375 80.171875 187.5 80.125 C 175.152344 80.171875 162.84375 82.390625 152.984375 85.972656 C 150.488281 86.777344 148.199219 87.804688 146.003906 88.667969 C 144.933594 89.164062 143.898438 89.644531 142.894531 90.109375 C 142.394531 90.34375 141.902344 90.570312 141.421875 90.796875 C 140.941406 91.023438 140.488281 91.28125 140.035156 91.515625 C 138.234375 92.476562 136.566406 93.3125 135.15625 94.203125 C 134.445312 94.628906 133.773438 95.03125 133.152344 95.40625 C 132.839844 95.59375 132.542969 95.777344 132.253906 95.949219 C 131.976562 96.136719 131.710938 96.316406 131.453125 96.488281 C 131.453125 96.488281 130.5 97.128906 129.546875 97.765625 C 129.070312 98.085938 128.59375 98.40625 128.238281 98.644531 C 127.875 98.878906 127.652344 99.058594 127.652344 99.058594 C 127.652344 99.058594 126.628906 99.796875 125.089844 100.910156 C 124.703125 101.1875 124.289062 101.484375 123.847656 101.804688 C 123.421875 102.140625 122.976562 102.5 122.511719 102.867188 C 121.585938 103.609375 120.585938 104.382812 119.617188 105.191406 C 117.722656 106.867188 115.792969 108.5 114.460938 109.855469 C 113.777344 110.511719 113.210938 111.0625 112.8125 111.445312 C 112.414062 111.828125 112.195312 112.054688 112.195312 112.054688 C 112.195312 112.054688 111.320312 112.964844 110.007812 114.335938 C 108.65625 115.671875 107.054688 117.628906 105.378906 119.523438 C 103.824219 121.519531 102.199219 123.460938 101.136719 125.039062 C 100.03125 126.582031 99.296875 127.609375 99.296875 127.609375 L 96.75 131.4375 C 91.453125 139.699219 87.207031 148.691406 84.433594 158.164062 C 81.546875 167.613281 80.214844 177.519531 80.128906 187.417969 L 80.125 187.425781 L 80.125 187.570312 L 80.128906 187.578125 C 80.214844 197.476562 81.546875 207.386719 84.433594 216.832031 C 87.207031 226.304688 91.453125 235.300781 96.75 243.558594 L 99.296875 247.386719 C 99.296875 247.386719 100.035156 248.414062 101.136719 249.960938 C 102.199219 251.535156 103.824219 253.476562 105.378906 255.472656 C 107.054688 257.367188 108.65625 259.324219 110.007812 260.660156 C 111.320312 262.027344 112.195312 262.941406 112.195312 262.941406 C 112.195312 262.941406 112.414062 263.167969 112.8125 263.550781 C 113.210938 263.933594 113.777344 264.484375 114.460938 265.140625 C 115.792969 266.496094 117.722656 268.128906 119.617188 269.804688 C 120.585938 270.613281 121.585938 271.386719 122.511719 272.128906 C 122.976562 272.496094 123.421875 272.855469 123.847656 273.191406 C 124.289062 273.511719 124.703125 273.808594 125.089844 274.085938 C 126.628906 275.199219 127.652344 275.9375 127.652344 275.9375 C 127.652344 275.9375 127.875 276.117188 128.238281 276.351562 C 128.59375 276.589844 129.070312 276.910156 129.546875 277.230469 C 130.5 277.867188 131.457031 278.507812 131.457031 278.507812 C 131.710938 278.679688 131.976562 278.859375 132.253906 279.046875 C 132.542969 279.222656 132.839844 279.402344 133.152344 279.589844 C 133.773438 279.964844 134.445312 280.367188 135.15625 280.792969 C 136.566406 281.683594 138.234375 282.519531 140.035156 283.480469 C 140.488281 283.714844 140.945312 283.972656 141.421875 284.199219 C 141.902344 284.425781 142.394531 284.65625 142.894531 284.886719 C 143.898438 285.351562 144.933594 285.832031 146.003906 286.328125 C 148.199219 287.191406 150.488281 288.21875 152.988281 289.023438 C 162.84375 292.605469 175.152344 294.820312 187.5 294.871094 C 199.84375 294.820312 212.152344 292.605469 222.011719 289.023438 C 224.507812 288.21875 226.796875 287.191406 228.992188 286.328125 C 230.0625 285.832031 231.101562 285.351562 232.101562 284.886719 C 232.601562 284.652344 233.09375 284.425781 233.574219 284.199219 C 234.054688 283.972656 234.507812 283.714844 234.960938 283.480469 C 236.761719 282.519531 238.429688 281.683594 239.839844 280.792969 C 240.550781 280.367188 241.222656 279.964844 241.84375 279.589844 C 242.15625 279.402344 242.453125 279.21875 242.742188 279.046875 C 243.019531 278.859375 243.285156 278.679688 243.542969 278.507812 C 243.542969 278.507812 244.496094 277.867188 245.449219 277.230469 C 245.925781 276.910156 246.402344 276.589844 246.757812 276.351562 C 247.121094 276.117188 247.34375 275.9375 247.34375 275.9375 C 247.34375 275.9375 248.371094 275.199219 249.90625 274.085938 C 250.292969 273.808594 250.707031 273.511719 251.148438 273.191406 C 251.574219 272.855469 252.023438 272.496094 252.484375 272.128906 C 253.410156 271.386719 254.410156 270.613281 255.382812 269.804688 C 257.273438 268.128906 259.207031 266.496094 260.535156 265.140625 C 261.21875 264.484375 261.785156 263.933594 262.183594 263.550781 C 262.582031 263.167969 262.800781 262.941406 262.800781 262.941406 C 262.800781 262.941406 263.675781 262.027344 264.988281 260.660156 C 266.339844 259.324219 267.941406 257.367188 269.617188 255.472656 C 271.171875 253.476562 272.796875 251.535156 273.859375 249.960938 C 274.964844 248.414062 275.699219 247.386719 275.699219 247.386719 L 278.246094 243.558594 C 283.542969 235.300781 287.789062 226.304688 290.5625 216.832031 C 293.449219 207.382812 294.78125 197.476562 294.867188 187.578125 L 294.871094 187.570312 L 294.871094 187.425781 " fill-opacity="1" fill-rule="nonzero"/></g><g fill="#000000" fill-opacity="1"><g transform="translate(98.469913, 142.099748)"><g><path d="M -1.15625 -1.671875 L -7.6875 -10.90625 C -7.925781 -11.226562 -8.054688 -11.554688 -8.078125 -11.890625 C -8.097656 -12.234375 -8.003906 -12.582031 -7.796875 -12.9375 L -7.703125 -13.078125 C -7.503906 -13.421875 -7.25 -13.660156 -6.9375 -13.796875 C -6.632812 -13.929688 -6.285156 -13.972656 -5.890625 -13.921875 L 5.328125 -12.5625 C 5.617188 -12.5 5.8125 -12.441406 5.90625 -12.390625 C 6.238281 -12.191406 6.453125 -11.910156 6.546875 -11.546875 C 6.640625 -11.179688 6.585938 -10.832031 6.390625 -10.5 C 6.222656 -10.207031 6.003906 -10.007812 5.734375 -9.90625 C 5.460938 -9.8125 5.164062 -9.78125 4.84375 -9.8125 L 2.625 -10.109375 L -0.34375 -5.15625 L 1.046875 -3.28125 C 1.222656 -3.019531 1.316406 -2.75 1.328125 -2.46875 C 1.335938 -2.1875 1.269531 -1.914062 1.125 -1.65625 C 0.925781 -1.332031 0.648438 -1.128906 0.296875 -1.046875 C -0.0546875 -0.960938 -0.394531 -1.015625 -0.71875 -1.203125 C -0.800781 -1.265625 -0.878906 -1.332031 -0.953125 -1.40625 C -1.035156 -1.488281 -1.101562 -1.578125 -1.15625 -1.671875 Z M -1.984375 -7.390625 L -0.125 -10.515625 L -4.78125 -11.15625 Z M -1.984375 -7.390625 "/></g></g></g><g fill="#000000" fill-opacity="1"><g transform="translate(106.332071, 129.064944)"><g><path d="M -8.40625 -10.59375 C -8.15625 -10.894531 -7.832031 -11.066406 -7.4375 -11.109375 C -7.050781 -11.148438 -6.703125 -11.039062 -6.390625 -10.78125 L -1.703125 -6.90625 C -0.847656 -6.207031 -0.0546875 -5.878906 0.671875 -5.921875 C 1.398438 -5.960938 2.050781 -6.332031 2.625 -7.03125 C 3.195312 -7.726562 3.4375 -8.429688 3.34375 -9.140625 C 3.257812 -9.859375 2.804688 -10.550781 1.984375 -11.21875 L -2.78125 -15.15625 C -3.09375 -15.414062 -3.265625 -15.742188 -3.296875 -16.140625 C -3.335938 -16.535156 -3.226562 -16.882812 -2.96875 -17.1875 C -2.71875 -17.5 -2.394531 -17.675781 -2 -17.71875 C -1.601562 -17.757812 -1.25 -17.648438 -0.9375 -17.390625 L 3.75 -13.53125 C 4.507812 -12.894531 5.085938 -12.234375 5.484375 -11.546875 C 5.890625 -10.859375 6.125 -10.164062 6.1875 -9.46875 C 6.25 -8.78125 6.144531 -8.085938 5.875 -7.390625 C 5.613281 -6.691406 5.203125 -6 4.640625 -5.3125 C 3.515625 -3.957031 2.253906 -3.195312 0.859375 -3.03125 C -0.523438 -2.875 -1.96875 -3.410156 -3.46875 -4.640625 L -8.21875 -8.5625 C -8.53125 -8.820312 -8.703125 -9.148438 -8.734375 -9.546875 C -8.773438 -9.941406 -8.664062 -10.289062 -8.40625 -10.59375 Z M -8.40625 -10.59375 "/></g></g></g><g fill="#000000" fill-opacity="1"><g transform="translate(116.036294, 117.510807)"><g><path d="M -7.5625 -9.078125 C -7.8125 -9.335938 -7.925781 -9.648438 -7.90625 -10.015625 C -7.882812 -10.390625 -7.738281 -10.695312 -7.46875 -10.9375 L -1.234375 -16.625 C -0.972656 -16.875 -0.660156 -16.988281 -0.296875 -16.96875 C 0.0664062 -16.957031 0.375 -16.820312 0.625 -16.5625 C 0.875 -16.289062 0.988281 -15.96875 0.96875 -15.59375 C 0.945312 -15.226562 0.804688 -14.921875 0.546875 -14.671875 L -1.515625 -12.796875 L 4.65625 -6.046875 C 4.914062 -5.753906 5.035156 -5.410156 5.015625 -5.015625 C 5.003906 -4.617188 4.851562 -4.285156 4.5625 -4.015625 C 4.257812 -3.742188 3.910156 -3.617188 3.515625 -3.640625 C 3.117188 -3.660156 2.789062 -3.816406 2.53125 -4.109375 L -3.640625 -10.859375 L -5.6875 -8.984375 C -5.957031 -8.742188 -6.273438 -8.628906 -6.640625 -8.640625 C -7.003906 -8.660156 -7.3125 -8.804688 -7.5625 -9.078125 Z M -7.5625 -9.078125 "/></g></g></g><g fill="#000000" fill-opacity="1"><g transform="translate(125.61001, 108.669875)"><g><path d="M -0.796875 -15.515625 C 0.046875 -16.085938 0.914062 -16.460938 1.8125 -16.640625 C 2.71875 -16.828125 3.59375 -16.84375 4.4375 -16.6875 C 5.289062 -16.53125 6.085938 -16.203125 6.828125 -15.703125 C 7.578125 -15.203125 8.210938 -14.566406 8.734375 -13.796875 L 8.75 -13.765625 C 9.269531 -12.984375 9.613281 -12.15625 9.78125 -11.28125 C 9.945312 -10.414062 9.945312 -9.550781 9.78125 -8.6875 C 9.613281 -7.832031 9.269531 -7.015625 8.75 -6.234375 C 8.238281 -5.460938 7.566406 -4.796875 6.734375 -4.234375 C 5.890625 -3.671875 5.015625 -3.300781 4.109375 -3.125 C 3.203125 -2.945312 2.320312 -2.9375 1.46875 -3.09375 C 0.625 -3.25 -0.164062 -3.570312 -0.90625 -4.0625 C -1.65625 -4.5625 -2.289062 -5.203125 -2.8125 -5.984375 L -2.828125 -6.015625 C -3.347656 -6.796875 -3.6875 -7.617188 -3.84375 -8.484375 C -4.007812 -9.359375 -4.007812 -10.222656 -3.84375 -11.078125 C -3.675781 -11.941406 -3.332031 -12.753906 -2.8125 -13.515625 C -2.300781 -14.285156 -1.628906 -14.953125 -0.796875 -15.515625 Z M 5.265625 -6.46875 C 5.765625 -6.800781 6.148438 -7.1875 6.421875 -7.625 C 6.703125 -8.070312 6.878906 -8.546875 6.953125 -9.046875 C 7.035156 -9.546875 7.019531 -10.054688 6.90625 -10.578125 C 6.789062 -11.097656 6.578125 -11.59375 6.265625 -12.0625 L 6.25 -12.09375 C 5.9375 -12.5625 5.5625 -12.945312 5.125 -13.25 C 4.6875 -13.550781 4.21875 -13.757812 3.71875 -13.875 C 3.21875 -13.988281 2.703125 -14.003906 2.171875 -13.921875 C 1.640625 -13.835938 1.132812 -13.628906 0.65625 -13.296875 C 0.175781 -12.984375 -0.203125 -12.597656 -0.484375 -12.140625 C -0.773438 -11.691406 -0.957031 -11.21875 -1.03125 -10.71875 C -1.113281 -10.21875 -1.097656 -9.707031 -0.984375 -9.1875 C -0.867188 -8.664062 -0.65625 -8.175781 -0.34375 -7.71875 L -0.328125 -7.6875 C -0.015625 -7.21875 0.359375 -6.828125 0.796875 -6.515625 C 1.242188 -6.210938 1.71875 -6.003906 2.21875 -5.890625 C 2.726562 -5.773438 3.242188 -5.765625 3.765625 -5.859375 C 4.296875 -5.953125 4.796875 -6.15625 5.265625 -6.46875 Z M 5.265625 -6.46875 "/></g></g></g><g fill="#000000" fill-opacity="1"><g transform="translate(139.513948, 99.408392)"><g><path d="M 0.90625 -1.828125 L -3.375 -11.359375 C -3.539062 -11.734375 -3.550781 -12.101562 -3.40625 -12.46875 C -3.269531 -12.84375 -3.019531 -13.113281 -2.65625 -13.28125 L -2.359375 -13.421875 C -2.066406 -13.546875 -1.796875 -13.582031 -1.546875 -13.53125 C -1.296875 -13.488281 -1.0625 -13.398438 -0.84375 -13.265625 L 4.65625 -9.5 L 5.53125 -16.140625 C 5.59375 -16.710938 5.882812 -17.113281 6.40625 -17.34375 L 6.6875 -17.46875 C 7.050781 -17.632812 7.421875 -17.644531 7.796875 -17.5 C 8.171875 -17.363281 8.441406 -17.109375 8.609375 -16.734375 L 12.875 -7.234375 C 13.039062 -6.867188 13.050781 -6.5 12.90625 -6.125 C 12.757812 -5.757812 12.503906 -5.492188 12.140625 -5.328125 C 11.773438 -5.160156 11.410156 -5.148438 11.046875 -5.296875 C 10.679688 -5.441406 10.414062 -5.695312 10.25 -6.0625 L 7.578125 -12.03125 L 6.859375 -7.421875 C 6.816406 -7.171875 6.734375 -6.945312 6.609375 -6.75 C 6.484375 -6.550781 6.300781 -6.394531 6.0625 -6.28125 C 5.820312 -6.175781 5.585938 -6.144531 5.359375 -6.1875 C 5.128906 -6.226562 4.898438 -6.316406 4.671875 -6.453125 L 0.8125 -8.921875 L 3.484375 -2.984375 C 3.648438 -2.609375 3.660156 -2.242188 3.515625 -1.890625 C 3.378906 -1.546875 3.128906 -1.289062 2.765625 -1.125 C 2.398438 -0.957031 2.039062 -0.9375 1.6875 -1.0625 C 1.332031 -1.195312 1.070312 -1.453125 0.90625 -1.828125 Z M 0.90625 -1.828125 "/></g></g></g><g fill="#000000" fill-opacity="1"><g transform="translate(155.15313, 92.553153)"><g><path d="M 0.328125 -2.015625 L 2.109375 -13.171875 C 2.171875 -13.566406 2.3125 -13.894531 2.53125 -14.15625 C 2.75 -14.414062 3.054688 -14.597656 3.453125 -14.703125 L 3.609375 -14.75 C 3.992188 -14.84375 4.34375 -14.832031 4.65625 -14.71875 C 4.976562 -14.601562 5.265625 -14.390625 5.515625 -14.078125 L 12.578125 -5.265625 C 12.753906 -5.023438 12.859375 -4.851562 12.890625 -4.75 C 12.992188 -4.375 12.945312 -4.019531 12.75 -3.6875 C 12.5625 -3.363281 12.285156 -3.148438 11.921875 -3.046875 C 11.597656 -2.960938 11.300781 -2.976562 11.03125 -3.09375 C 10.769531 -3.21875 10.535156 -3.398438 10.328125 -3.640625 L 8.9375 -5.421875 L 3.359375 -3.9375 L 3.03125 -1.609375 C 2.976562 -1.304688 2.859375 -1.046875 2.671875 -0.828125 C 2.492188 -0.617188 2.257812 -0.476562 1.96875 -0.40625 C 1.601562 -0.3125 1.265625 -0.359375 0.953125 -0.546875 C 0.640625 -0.734375 0.4375 -1.003906 0.34375 -1.359375 C 0.3125 -1.460938 0.296875 -1.566406 0.296875 -1.671875 C 0.296875 -1.785156 0.304688 -1.898438 0.328125 -2.015625 Z M 3.75 -6.6875 L 7.265625 -7.609375 L 4.375 -11.328125 Z M 3.75 -6.6875 "/></g></g></g><g fill="#000000" fill-opacity="1"><g transform="translate(169.946927, 88.767512)"><g><path d="M -0.859375 -11.78125 C -0.898438 -12.144531 -0.804688 -12.46875 -0.578125 -12.75 C -0.359375 -13.039062 -0.0664062 -13.207031 0.296875 -13.25 L 8.671875 -14.234375 C 9.035156 -14.285156 9.363281 -14.195312 9.65625 -13.96875 C 9.945312 -13.738281 10.113281 -13.441406 10.15625 -13.078125 C 10.195312 -12.710938 10.101562 -12.382812 9.875 -12.09375 C 9.644531 -11.8125 9.347656 -11.644531 8.984375 -11.59375 L 6.234375 -11.28125 L 7.3125 -2.203125 C 7.351562 -1.816406 7.25 -1.460938 7 -1.140625 C 6.757812 -0.828125 6.441406 -0.648438 6.046875 -0.609375 C 5.648438 -0.554688 5.289062 -0.65625 4.96875 -0.90625 C 4.65625 -1.15625 4.476562 -1.472656 4.4375 -1.859375 L 3.359375 -10.9375 L 0.609375 -10.609375 C 0.242188 -10.566406 -0.078125 -10.660156 -0.359375 -10.890625 C -0.648438 -11.117188 -0.816406 -11.414062 -0.859375 -11.78125 Z M -0.859375 -11.78125 "/></g></g></g><g fill="#000000" fill-opacity="1"><g transform="translate(183.150433, 87.416326)"><g><path d="M 1.53125 -11.828125 C 1.53125 -12.222656 1.664062 -12.5625 1.9375 -12.84375 C 2.21875 -13.125 2.5625 -13.269531 2.96875 -13.28125 C 3.363281 -13.28125 3.703125 -13.140625 3.984375 -12.859375 C 4.273438 -12.585938 4.421875 -12.253906 4.421875 -11.859375 L 4.578125 -1.390625 C 4.578125 -0.992188 4.4375 -0.648438 4.15625 -0.359375 C 3.882812 -0.078125 3.550781 0.0625 3.15625 0.0625 C 2.75 0.0703125 2.398438 -0.0625 2.109375 -0.34375 C 1.828125 -0.625 1.6875 -0.960938 1.6875 -1.359375 Z M 1.53125 -11.828125 "/></g></g></g><g fill="#000000" fill-opacity="1"><g transform="translate(190.490502, 87.083095)"><g><path d="M 9.375 -12.40625 C 10.375 -12.300781 11.28125 -12.023438 12.09375 -11.578125 C 12.914062 -11.128906 13.597656 -10.570312 14.140625 -9.90625 C 14.679688 -9.238281 15.078125 -8.476562 15.328125 -7.625 C 15.578125 -6.769531 15.648438 -5.878906 15.546875 -4.953125 L 15.546875 -4.921875 C 15.453125 -3.984375 15.1875 -3.125 14.75 -2.34375 C 14.320312 -1.570312 13.765625 -0.910156 13.078125 -0.359375 C 12.398438 0.179688 11.613281 0.582031 10.71875 0.84375 C 9.820312 1.101562 8.875 1.179688 7.875 1.078125 C 6.875 0.960938 5.96875 0.679688 5.15625 0.234375 C 4.351562 -0.203125 3.675781 -0.753906 3.125 -1.421875 C 2.570312 -2.085938 2.171875 -2.847656 1.921875 -3.703125 C 1.671875 -4.554688 1.597656 -5.453125 1.703125 -6.390625 L 1.703125 -6.421875 C 1.804688 -7.347656 2.070312 -8.195312 2.5 -8.96875 C 2.9375 -9.75 3.5 -10.410156 4.1875 -10.953125 C 4.875 -11.503906 5.660156 -11.910156 6.546875 -12.171875 C 7.429688 -12.429688 8.375 -12.507812 9.375 -12.40625 Z M 8.203125 -1.5625 C 8.796875 -1.5 9.335938 -1.546875 9.828125 -1.703125 C 10.328125 -1.867188 10.769531 -2.117188 11.15625 -2.453125 C 11.539062 -2.785156 11.851562 -3.1875 12.09375 -3.65625 C 12.34375 -4.132812 12.5 -4.65625 12.5625 -5.21875 L 12.5625 -5.25 C 12.625 -5.800781 12.582031 -6.335938 12.4375 -6.859375 C 12.300781 -7.378906 12.078125 -7.84375 11.765625 -8.25 C 11.453125 -8.65625 11.066406 -8.992188 10.609375 -9.265625 C 10.160156 -9.535156 9.644531 -9.703125 9.0625 -9.765625 C 8.488281 -9.828125 7.945312 -9.773438 7.4375 -9.609375 C 6.925781 -9.453125 6.476562 -9.207031 6.09375 -8.875 C 5.707031 -8.539062 5.394531 -8.132812 5.15625 -7.65625 C 4.914062 -7.1875 4.765625 -6.675781 4.703125 -6.125 L 4.703125 -6.09375 C 4.640625 -5.53125 4.675781 -4.988281 4.8125 -4.46875 C 4.945312 -3.945312 5.171875 -3.484375 5.484375 -3.078125 C 5.796875 -2.671875 6.179688 -2.332031 6.640625 -2.0625 C 7.109375 -1.789062 7.628906 -1.625 8.203125 -1.5625 Z M 8.203125 -1.5625 "/></g></g></g><g fill="#000000" fill-opacity="1"><g transform="translate(207.118812, 88.994071)"><g><path d="M 1.859375 -0.84375 L 4.65625 -10.90625 C 4.757812 -11.289062 4.984375 -11.582031 5.328125 -11.78125 C 5.671875 -11.976562 6.035156 -12.023438 6.421875 -11.921875 L 6.703125 -11.828125 C 7.046875 -11.734375 7.304688 -11.582031 7.484375 -11.375 C 7.660156 -11.164062 7.8125 -10.914062 7.9375 -10.625 L 11.359375 -2.09375 L 13.171875 -8.625 C 13.273438 -9 13.492188 -9.28125 13.828125 -9.46875 C 14.171875 -9.664062 14.535156 -9.707031 14.921875 -9.59375 C 15.296875 -9.488281 15.578125 -9.265625 15.765625 -8.921875 C 15.960938 -8.585938 16.007812 -8.234375 15.90625 -7.859375 L 13.109375 2.203125 C 13.003906 2.597656 12.78125 2.890625 12.4375 3.078125 C 12.09375 3.273438 11.734375 3.320312 11.359375 3.21875 L 11.265625 3.203125 C 10.921875 3.109375 10.660156 2.953125 10.484375 2.734375 C 10.316406 2.523438 10.164062 2.273438 10.03125 1.984375 L 6.484375 -6.875 L 4.609375 -0.09375 C 4.503906 0.289062 4.28125 0.578125 3.9375 0.765625 C 3.601562 0.960938 3.242188 1.007812 2.859375 0.90625 C 2.472656 0.800781 2.179688 0.578125 1.984375 0.234375 C 1.796875 -0.0976562 1.753906 -0.457031 1.859375 -0.84375 Z M 1.859375 -0.84375 "/></g></g></g><g fill="#000000" fill-opacity="1"><g transform="translate(222.331001, 93.535723)"><g/></g></g><g fill="#000000" fill-opacity="1"><g transform="translate(228.762315, 96.178376)"><g/></g></g><g fill="#000000" fill-opacity="1"><g transform="translate(234.901822, 99.033818)"><g><path d="M 2.109375 -0.390625 L 7.515625 -9.09375 C 7.722656 -9.4375 8.019531 -9.648438 8.40625 -9.734375 C 8.789062 -9.828125 9.148438 -9.769531 9.484375 -9.5625 L 15.671875 -5.71875 C 15.984375 -5.53125 16.175781 -5.265625 16.25 -4.921875 C 16.332031 -4.578125 16.273438 -4.25 16.078125 -3.9375 C 15.890625 -3.625 15.628906 -3.429688 15.296875 -3.359375 C 14.960938 -3.285156 14.640625 -3.34375 14.328125 -3.53125 L 9.34375 -6.625 L 7.921875 -4.359375 L 12.1875 -1.71875 C 12.5 -1.519531 12.691406 -1.25 12.765625 -0.90625 C 12.847656 -0.5625 12.796875 -0.238281 12.609375 0.0625 C 12.421875 0.363281 12.15625 0.550781 11.8125 0.625 C 11.476562 0.707031 11.15625 0.648438 10.84375 0.453125 L 6.578125 -2.1875 L 5.125 0.171875 L 10.1875 3.3125 C 10.5 3.5 10.691406 3.765625 10.765625 4.109375 C 10.835938 4.453125 10.78125 4.773438 10.59375 5.078125 C 10.40625 5.390625 10.140625 5.582031 9.796875 5.65625 C 9.460938 5.726562 9.140625 5.671875 8.828125 5.484375 L 2.5625 1.59375 C 2.226562 1.382812 2.015625 1.082031 1.921875 0.6875 C 1.828125 0.300781 1.890625 -0.0546875 2.109375 -0.390625 Z M 2.109375 -0.390625 "/></g></g></g><g fill="#000000" fill-opacity="1"><g transform="translate(246.343701, 106.164898)"><g><path d="M 14.578125 -5.203125 C 15.328125 -4.566406 15.890625 -3.941406 16.265625 -3.328125 C 16.648438 -2.710938 16.925781 -2.0625 17.09375 -1.375 C 17.132812 -1.175781 17.128906 -0.96875 17.078125 -0.75 C 17.035156 -0.53125 16.9375 -0.328125 16.78125 -0.140625 C 16.519531 0.171875 16.195312 0.34375 15.8125 0.375 C 15.4375 0.40625 15.09375 0.289062 14.78125 0.03125 C 14.632812 -0.09375 14.53125 -0.222656 14.46875 -0.359375 C 14.40625 -0.492188 14.351562 -0.617188 14.3125 -0.734375 C 14.195312 -1.222656 14.023438 -1.664062 13.796875 -2.0625 C 13.566406 -2.457031 13.25 -2.828125 12.84375 -3.171875 C 12.425781 -3.515625 11.96875 -3.753906 11.46875 -3.890625 C 10.976562 -4.035156 10.484375 -4.070312 9.984375 -4 C 9.492188 -3.9375 9.015625 -3.773438 8.546875 -3.515625 C 8.085938 -3.253906 7.675781 -2.910156 7.3125 -2.484375 L 7.296875 -2.453125 C 6.929688 -2.023438 6.660156 -1.554688 6.484375 -1.046875 C 6.304688 -0.546875 6.222656 -0.046875 6.234375 0.453125 C 6.242188 0.953125 6.359375 1.429688 6.578125 1.890625 C 6.796875 2.359375 7.117188 2.773438 7.546875 3.140625 C 8.023438 3.535156 8.488281 3.804688 8.9375 3.953125 C 9.394531 4.097656 9.890625 4.179688 10.421875 4.203125 C 10.734375 4.191406 11.015625 4.289062 11.265625 4.5 C 11.546875 4.726562 11.703125 5.03125 11.734375 5.40625 C 11.773438 5.78125 11.679688 6.109375 11.453125 6.390625 C 11.304688 6.554688 11.144531 6.671875 10.96875 6.734375 C 10.789062 6.796875 10.601562 6.835938 10.40625 6.859375 C 9.632812 6.898438 8.875 6.789062 8.125 6.53125 C 7.375 6.28125 6.59375 5.8125 5.78125 5.125 C 5.039062 4.507812 4.46875 3.800781 4.0625 3 C 3.65625 2.207031 3.414062 1.382812 3.34375 0.53125 C 3.269531 -0.320312 3.367188 -1.171875 3.640625 -2.015625 C 3.921875 -2.859375 4.359375 -3.640625 4.953125 -4.359375 L 4.984375 -4.390625 C 5.578125 -5.109375 6.265625 -5.671875 7.046875 -6.078125 C 7.828125 -6.492188 8.648438 -6.742188 9.515625 -6.828125 C 10.378906 -6.921875 11.242188 -6.835938 12.109375 -6.578125 C 12.972656 -6.316406 13.796875 -5.859375 14.578125 -5.203125 Z M 14.578125 -5.203125 "/></g></g></g><g fill="#000000" fill-opacity="1"><g transform="translate(257.604813, 115.56895)"><g><path d="M 15.296875 -2.75 C 15.960938 -1.976562 16.441406 -1.15625 16.734375 -0.28125 C 17.035156 0.59375 17.15625 1.457031 17.09375 2.3125 C 17.039062 3.175781 16.816406 4.007812 16.421875 4.8125 C 16.035156 5.613281 15.488281 6.320312 14.78125 6.9375 L 14.765625 6.953125 C 14.054688 7.566406 13.28125 8.007812 12.4375 8.28125 C 11.59375 8.5625 10.726562 8.671875 9.84375 8.609375 C 8.96875 8.554688 8.113281 8.320312 7.28125 7.90625 C 6.457031 7.488281 5.710938 6.898438 5.046875 6.140625 C 4.378906 5.378906 3.898438 4.5625 3.609375 3.6875 C 3.328125 2.8125 3.207031 1.941406 3.25 1.078125 C 3.300781 0.210938 3.523438 -0.613281 3.921875 -1.40625 C 4.316406 -2.207031 4.867188 -2.914062 5.578125 -3.53125 L 5.609375 -3.5625 C 6.316406 -4.175781 7.09375 -4.617188 7.9375 -4.890625 C 8.78125 -5.160156 9.640625 -5.265625 10.515625 -5.203125 C 11.390625 -5.140625 12.238281 -4.90625 13.0625 -4.5 C 13.894531 -4.09375 14.640625 -3.507812 15.296875 -2.75 Z M 7.078125 4.421875 C 7.472656 4.867188 7.90625 5.203125 8.375 5.421875 C 8.851562 5.648438 9.347656 5.769531 9.859375 5.78125 C 10.367188 5.789062 10.875 5.707031 11.375 5.53125 C 11.875 5.351562 12.332031 5.082031 12.75 4.71875 L 12.78125 4.6875 C 13.207031 4.320312 13.546875 3.898438 13.796875 3.421875 C 14.046875 2.953125 14.191406 2.457031 14.234375 1.9375 C 14.285156 1.425781 14.234375 0.914062 14.078125 0.40625 C 13.929688 -0.101562 13.664062 -0.578125 13.28125 -1.015625 C 12.90625 -1.453125 12.472656 -1.78125 11.984375 -2 C 11.503906 -2.226562 11.007812 -2.347656 10.5 -2.359375 C 10 -2.378906 9.5 -2.296875 9 -2.109375 C 8.5 -1.929688 8.035156 -1.660156 7.609375 -1.296875 L 7.59375 -1.28125 C 7.164062 -0.90625 6.828125 -0.476562 6.578125 0 C 6.328125 0.46875 6.175781 0.957031 6.125 1.46875 C 6.070312 1.976562 6.125 2.488281 6.28125 3 C 6.4375 3.519531 6.703125 3.992188 7.078125 4.421875 Z M 7.078125 4.421875 "/></g></g></g><g fill="#000000" fill-opacity="1"><g transform="translate(268.531233, 128.207648)"><g><path d="M 1.9375 0.671875 L 10.859375 -4.765625 C 11.210938 -4.972656 11.582031 -5.03125 11.96875 -4.9375 C 12.351562 -4.851562 12.644531 -4.640625 12.84375 -4.296875 L 13.015625 -4.015625 C 13.179688 -3.753906 13.253906 -3.492188 13.234375 -3.234375 C 13.222656 -2.972656 13.164062 -2.726562 13.0625 -2.5 L 10.015625 3.4375 L 16.71875 3.453125 C 17.289062 3.453125 17.722656 3.691406 18.015625 4.171875 L 18.171875 4.4375 C 18.378906 4.789062 18.4375 5.160156 18.34375 5.546875 C 18.25 5.941406 18.023438 6.242188 17.671875 6.453125 L 8.78125 11.875 C 8.4375 12.082031 8.070312 12.140625 7.6875 12.046875 C 7.300781 11.953125 7.003906 11.726562 6.796875 11.375 C 6.585938 11.039062 6.53125 10.679688 6.625 10.296875 C 6.726562 9.921875 6.953125 9.628906 7.296875 9.421875 L 12.875 6.015625 L 8.234375 5.875 C 7.960938 5.863281 7.722656 5.8125 7.515625 5.71875 C 7.304688 5.625 7.128906 5.457031 6.984375 5.21875 C 6.847656 5 6.785156 4.769531 6.796875 4.53125 C 6.804688 4.300781 6.867188 4.066406 6.984375 3.828125 L 8.96875 -0.296875 L 3.40625 3.09375 C 3.0625 3.300781 2.703125 3.359375 2.328125 3.265625 C 1.953125 3.171875 1.660156 2.953125 1.453125 2.609375 C 1.242188 2.265625 1.1875 1.90625 1.28125 1.53125 C 1.375 1.164062 1.59375 0.878906 1.9375 0.671875 Z M 1.9375 0.671875 "/></g></g></g><g fill="#000000" fill-opacity="1"><g transform="translate(145.865343, 290.304582)"><g><path d="M 10.203125 -8.765625 C 11.023438 -8.484375 11.691406 -8.160156 12.203125 -7.796875 C 12.722656 -7.429688 13.160156 -6.984375 13.515625 -6.453125 C 13.597656 -6.347656 13.664062 -6.191406 13.71875 -5.984375 C 13.78125 -5.785156 13.769531 -5.570312 13.6875 -5.34375 C 13.582031 -5.007812 13.378906 -4.769531 13.078125 -4.625 C 12.773438 -4.476562 12.457031 -4.460938 12.125 -4.578125 C 11.957031 -4.628906 11.820312 -4.695312 11.71875 -4.78125 C 11.625 -4.875 11.546875 -4.96875 11.484375 -5.0625 C 11.234375 -5.40625 10.945312 -5.703125 10.625 -5.953125 C 10.3125 -6.203125 9.894531 -6.414062 9.375 -6.59375 C 8.9375 -6.738281 8.5 -6.785156 8.0625 -6.734375 C 7.625 -6.691406 7.210938 -6.566406 6.828125 -6.359375 C 6.453125 -6.160156 6.113281 -5.878906 5.8125 -5.515625 C 5.519531 -5.160156 5.296875 -4.75 5.140625 -4.28125 L 5.125 -4.265625 C 4.957031 -3.765625 4.878906 -3.28125 4.890625 -2.8125 C 4.910156 -2.351562 5.015625 -1.921875 5.203125 -1.515625 C 5.390625 -1.109375 5.65625 -0.75 6 -0.4375 C 6.351562 -0.125 6.757812 0.109375 7.21875 0.265625 C 8.125 0.566406 8.941406 0.597656 9.671875 0.359375 L 10.1875 -1.171875 L 8.59375 -1.703125 C 8.3125 -1.804688 8.101562 -1.988281 7.96875 -2.25 C 7.832031 -2.519531 7.816406 -2.796875 7.921875 -3.078125 C 8.015625 -3.367188 8.195312 -3.582031 8.46875 -3.71875 C 8.738281 -3.851562 9.015625 -3.867188 9.296875 -3.765625 L 12 -2.859375 C 12.34375 -2.742188 12.585938 -2.523438 12.734375 -2.203125 C 12.890625 -1.890625 12.910156 -1.566406 12.796875 -1.234375 L 11.90625 1.390625 C 11.6875 2.046875 11.234375 2.445312 10.546875 2.59375 C 10.023438 2.71875 9.410156 2.78125 8.703125 2.78125 C 7.992188 2.789062 7.234375 2.65625 6.421875 2.375 C 5.578125 2.09375 4.851562 1.691406 4.25 1.171875 C 3.65625 0.660156 3.191406 0.078125 2.859375 -0.578125 C 2.523438 -1.234375 2.332031 -1.945312 2.28125 -2.71875 C 2.238281 -3.488281 2.359375 -4.273438 2.640625 -5.078125 L 2.640625 -5.109375 C 2.898438 -5.867188 3.285156 -6.539062 3.796875 -7.125 C 4.304688 -7.707031 4.898438 -8.164062 5.578125 -8.5 C 6.265625 -8.84375 7.003906 -9.039062 7.796875 -9.09375 C 8.585938 -9.15625 9.390625 -9.046875 10.203125 -8.765625 Z M 10.203125 -8.765625 "/></g></g></g><g fill="#000000" fill-opacity="1"><g transform="translate(160.861563, 295.109775)"><g><path d="M 3.34375 -9.765625 C 3.414062 -10.097656 3.59375 -10.363281 3.875 -10.5625 C 4.164062 -10.757812 4.488281 -10.820312 4.84375 -10.75 C 5.175781 -10.675781 5.4375 -10.492188 5.625 -10.203125 C 5.820312 -9.910156 5.882812 -9.597656 5.8125 -9.265625 L 4.25 -1.46875 L 8.78125 -0.5625 C 9.101562 -0.488281 9.347656 -0.320312 9.515625 -0.0625 C 9.679688 0.195312 9.734375 0.476562 9.671875 0.78125 C 9.609375 1.09375 9.445312 1.335938 9.1875 1.515625 C 8.9375 1.691406 8.648438 1.742188 8.328125 1.671875 L 2.578125 0.515625 C 2.222656 0.441406 1.945312 0.265625 1.75 -0.015625 C 1.5625 -0.304688 1.503906 -0.617188 1.578125 -0.953125 Z M 3.34375 -9.765625 "/></g></g></g><g fill="#000000" fill-opacity="1"><g transform="translate(173.718159, 297.621098)"><g><path d="M 7.65625 -11.09375 C 8.539062 -11.039062 9.335938 -10.835938 10.046875 -10.484375 C 10.765625 -10.140625 11.375 -9.6875 11.875 -9.125 C 12.375 -8.5625 12.75 -7.914062 13 -7.1875 C 13.257812 -6.457031 13.363281 -5.679688 13.3125 -4.859375 L 13.3125 -4.828125 C 13.25 -4.015625 13.039062 -3.265625 12.6875 -2.578125 C 12.34375 -1.898438 11.882812 -1.3125 11.3125 -0.8125 C 10.75 -0.3125 10.085938 0.0664062 9.328125 0.328125 C 8.566406 0.585938 7.742188 0.691406 6.859375 0.640625 C 5.984375 0.578125 5.1875 0.367188 4.46875 0.015625 C 3.757812 -0.335938 3.15625 -0.796875 2.65625 -1.359375 C 2.15625 -1.921875 1.773438 -2.5625 1.515625 -3.28125 C 1.265625 -4 1.164062 -4.765625 1.21875 -5.578125 L 1.234375 -5.609375 C 1.285156 -6.421875 1.484375 -7.175781 1.828125 -7.875 C 2.171875 -8.570312 2.628906 -9.171875 3.203125 -9.671875 C 3.785156 -10.171875 4.453125 -10.546875 5.203125 -10.796875 C 5.960938 -11.054688 6.78125 -11.15625 7.65625 -11.09375 Z M 7.046875 -1.65625 C 7.554688 -1.625 8.023438 -1.6875 8.453125 -1.84375 C 8.890625 -2.007812 9.265625 -2.242188 9.578125 -2.546875 C 9.898438 -2.847656 10.15625 -3.203125 10.34375 -3.609375 C 10.539062 -4.023438 10.65625 -4.476562 10.6875 -4.96875 L 10.703125 -5 C 10.734375 -5.488281 10.675781 -5.953125 10.53125 -6.390625 C 10.394531 -6.835938 10.179688 -7.234375 9.890625 -7.578125 C 9.597656 -7.929688 9.25 -8.210938 8.84375 -8.421875 C 8.4375 -8.640625 7.976562 -8.765625 7.46875 -8.796875 C 6.96875 -8.835938 6.5 -8.78125 6.0625 -8.625 C 5.632812 -8.46875 5.257812 -8.238281 4.9375 -7.9375 C 4.625 -7.632812 4.375 -7.269531 4.1875 -6.84375 C 4 -6.425781 3.890625 -5.972656 3.859375 -5.484375 L 3.859375 -5.453125 C 3.828125 -4.972656 3.875 -4.507812 4 -4.0625 C 4.132812 -3.625 4.34375 -3.234375 4.625 -2.890625 C 4.914062 -2.546875 5.269531 -2.257812 5.6875 -2.03125 C 6.101562 -1.8125 6.554688 -1.6875 7.046875 -1.65625 Z M 7.046875 -1.65625 "/></g></g></g><g fill="#000000" fill-opacity="1"><g transform="translate(190.578746, 298.422391)"><g><path d="M 1.265625 -1.359375 L 0.578125 -10.21875 C 0.546875 -10.5625 0.644531 -10.863281 0.875 -11.125 C 1.101562 -11.382812 1.394531 -11.53125 1.75 -11.5625 L 5.765625 -11.875 C 6.234375 -11.90625 6.691406 -11.882812 7.140625 -11.8125 C 7.585938 -11.738281 8 -11.597656 8.375 -11.390625 C 8.75 -11.179688 9.054688 -10.894531 9.296875 -10.53125 C 9.535156 -10.175781 9.675781 -9.734375 9.71875 -9.203125 L 9.734375 -9.171875 C 9.773438 -8.546875 9.664062 -8.023438 9.40625 -7.609375 C 9.144531 -7.203125 8.816406 -6.875 8.421875 -6.625 C 9.097656 -6.425781 9.644531 -6.125 10.0625 -5.71875 C 10.476562 -5.320312 10.710938 -4.742188 10.765625 -3.984375 L 10.78125 -3.953125 C 10.8125 -3.441406 10.738281 -2.984375 10.5625 -2.578125 C 10.394531 -2.171875 10.132812 -1.820312 9.78125 -1.53125 C 9.425781 -1.25 8.992188 -1.019531 8.484375 -0.84375 C 7.984375 -0.675781 7.410156 -0.566406 6.765625 -0.515625 L 2.625 -0.203125 C 2.269531 -0.171875 1.957031 -0.269531 1.6875 -0.5 C 1.425781 -0.726562 1.285156 -1.015625 1.265625 -1.359375 Z M 3.4375 -4.984375 L 3.625 -2.5 L 6.59375 -2.71875 C 7.144531 -2.769531 7.566406 -2.898438 7.859375 -3.109375 C 8.160156 -3.328125 8.296875 -3.648438 8.265625 -4.078125 L 8.265625 -4.109375 C 8.234375 -4.484375 8.0625 -4.769531 7.75 -4.96875 C 7.445312 -5.175781 6.972656 -5.253906 6.328125 -5.203125 Z M 3.28125 -7.0625 L 5.578125 -7.234375 C 6.140625 -7.273438 6.570312 -7.40625 6.875 -7.625 C 7.175781 -7.84375 7.3125 -8.15625 7.28125 -8.5625 L 7.265625 -8.59375 C 7.242188 -8.976562 7.085938 -9.257812 6.796875 -9.4375 C 6.503906 -9.613281 6.09375 -9.679688 5.5625 -9.640625 L 3.09375 -9.453125 Z M 3.28125 -7.0625 "/></g></g></g><g fill="#000000" fill-opacity="1"><g transform="translate(205.294485, 297.103076)"><g><path d="M 0.375 -1.734375 L 2.359375 -11.34375 C 2.429688 -11.664062 2.566406 -11.9375 2.765625 -12.15625 C 2.972656 -12.375 3.25 -12.519531 3.59375 -12.59375 L 3.734375 -12.625 C 4.066406 -12.695312 4.367188 -12.675781 4.640625 -12.5625 C 4.910156 -12.445312 5.148438 -12.253906 5.359375 -11.984375 L 11.125 -4.0625 C 11.257812 -3.832031 11.335938 -3.671875 11.359375 -3.578125 C 11.429688 -3.253906 11.378906 -2.953125 11.203125 -2.671875 C 11.023438 -2.398438 10.773438 -2.226562 10.453125 -2.15625 C 10.160156 -2.09375 9.898438 -2.113281 9.671875 -2.21875 C 9.453125 -2.332031 9.257812 -2.507812 9.09375 -2.75 L 7.96875 -4.328125 L 3.078125 -3.265625 L 2.6875 -1.28125 C 2.632812 -1.019531 2.519531 -0.800781 2.34375 -0.625 C 2.175781 -0.445312 1.960938 -0.328125 1.703125 -0.265625 C 1.390625 -0.203125 1.097656 -0.253906 0.828125 -0.421875 C 0.566406 -0.597656 0.398438 -0.847656 0.328125 -1.171875 C 0.316406 -1.253906 0.316406 -1.34375 0.328125 -1.4375 C 0.335938 -1.539062 0.351562 -1.640625 0.375 -1.734375 Z M 3.515625 -5.625 L 6.609375 -6.296875 L 4.265625 -9.640625 Z M 3.515625 -5.625 "/></g></g></g><g fill="#000000" fill-opacity="1"><g transform="translate(220.336703, 293.581499)"><g><path d="M -2.140625 -10.09375 C -2.253906 -10.425781 -2.234375 -10.75 -2.078125 -11.0625 C -1.929688 -11.375 -1.691406 -11.585938 -1.359375 -11.703125 C -1.035156 -11.816406 -0.71875 -11.800781 -0.40625 -11.65625 C -0.09375 -11.507812 0.117188 -11.269531 0.234375 -10.9375 L 2.890625 -3.453125 L 7.25 -5 C 7.550781 -5.101562 7.84375 -5.082031 8.125 -4.9375 C 8.414062 -4.800781 8.613281 -4.585938 8.71875 -4.296875 C 8.820312 -4.003906 8.804688 -3.710938 8.671875 -3.421875 C 8.535156 -3.140625 8.316406 -2.945312 8.015625 -2.84375 L 2.46875 -0.875 C 2.132812 -0.757812 1.8125 -0.773438 1.5 -0.921875 C 1.1875 -1.066406 0.972656 -1.300781 0.859375 -1.625 Z M -2.140625 -10.09375 "/></g></g></g><g clip-path="url(#b2305f1af7)"><path fill="#286291" d="M 165.691406 115.726562 C 176.796875 122.121094 209.46875 119.148438 207.84375 111.90625 C 200.636719 114.652344 186.382812 114.78125 177.9375 112.175781 C 177.3125 111.976562 175.414062 111.367188 174.359375 110.4375 C 171.453125 107.871094 177.792969 105.464844 187.933594 105.285156 C 182.390625 105.277344 176.609375 105.933594 172.078125 107.09375 C 163.359375 109.324219 160.730469 112.875 165.691406 115.726562 " fill-opacity="1" fill-rule="nonzero"/></g><path fill="#286291" d="M 225.429688 119.433594 L 225.316406 119.371094 C 215.359375 125.070312 183.867188 126.777344 164.058594 120.773438 C 162.601562 120.292969 161.34375 119.875 159.695312 119.0625 C 156.589844 117.535156 150.628906 113.542969 162.242188 109.527344 C 160.722656 110.058594 158.71875 110.816406 157.21875 111.394531 C 155.839844 111.964844 154.042969 112.816406 152.683594 113.425781 C 144.8125 117.238281 145.277344 120.699219 147.054688 122.9375 C 157.480469 136.046875 222.671875 133.132812 225.429688 119.433594 " fill-opacity="1" fill-rule="nonzero"/><path fill="#286291" d="M 141.957031 119.675781 C 142.050781 119.609375 142.144531 119.539062 142.234375 119.476562 C 142.140625 119.542969 142.050781 119.609375 141.957031 119.675781 " fill-opacity="1" fill-rule="nonzero"/><path fill="#286291" d="M 240.675781 130.398438 L 240.578125 130.308594 C 228.214844 138.800781 181.148438 141.625 151.75 132.765625 C 135.464844 127.328125 138.445312 122.308594 141.957031 119.675781 C 139.554688 121.421875 136.542969 123.785156 134.292969 125.625 C 132.84375 127.027344 129.832031 129.945312 131.84375 133.710938 C 142.070312 152.851562 233.613281 150.066406 240.675781 130.398438 " fill-opacity="1" fill-rule="nonzero"/><path fill="#286291" d="M 253.167969 144.261719 L 253.089844 144.15625 C 238.835938 155.117188 178.675781 158.703125 141.421875 147.515625 C 127.613281 142.882812 123.078125 138.175781 127.148438 132.695312 L 123.714844 136.792969 L 120.730469 140.84375 C 120.175781 141.691406 118.703125 143.9375 119.523438 146.652344 C 127.011719 171.457031 241.921875 169.40625 253.167969 144.261719 " fill-opacity="1" fill-rule="nonzero"/><path fill="#286291" d="M 262.359375 160.46875 L 262.308594 160.347656 C 246.78125 173.304688 177.542969 177.582031 133.503906 164.378906 C 119.058594 159.523438 113.613281 154.746094 115.839844 148.878906 C 114.402344 151.757812 112.671875 155.691406 111.425781 158.660156 C 111.203125 159.484375 110.679688 161.417969 111.242188 163.1875 C 119.84375 190.292969 248.363281 187.980469 262.359375 160.46875 " fill-opacity="1" fill-rule="nonzero"/><g clip-path="url(#f5b589265d)"><path fill="#286291" d="M 267.703125 178.441406 L 267.679688 178.3125 C 252.082031 192.261719 176.042969 196.980469 128.40625 182.722656 C 110.359375 176.648438 108.273438 171.753906 108.710938 167.367188 L 107.4375 173.386719 L 106.726562 178.457031 C 106.730469 179.363281 106.746094 180.601562 107.03125 181.457031 C 116.429688 209.855469 251.574219 207.320312 267.703125 178.441406 " fill-opacity="1" fill-rule="nonzero"/></g><g clip-path="url(#cc8f2f7a73)"><path fill="#286291" d="M 126.554688 201.90625 C 108.0625 195.675781 107.011719 191 106.246094 187.582031 C 106.363281 191.097656 106.738281 195.769531 107.105469 199.265625 C 107.199219 199.648438 107.28125 200.171875 107.410156 200.542969 C 117.183594 228.539062 251.304688 226.035156 268.652344 197.53125 C 268.710938 197.4375 268.78125 197.304688 268.835938 197.210938 C 254.375 211.535156 175.539062 216.550781 126.554688 201.90625 " fill-opacity="1" fill-rule="nonzero"/></g><path fill="#286291" d="M 128.234375 220.292969 C 116.144531 216.207031 110.878906 212.8125 108.8125 207.773438 C 109.753906 211.027344 111.207031 215.3125 112.375 218.496094 L 112.480469 218.753906 C 126.023438 244.898438 247.21875 242.453125 265.042969 215.675781 C 265.105469 215.585938 265.175781 215.460938 265.238281 215.375 C 252.296875 229.589844 176.558594 234.703125 128.234375 220.292969 " fill-opacity="1" fill-rule="nonzero"/><path fill="#286291" d="M 133.179688 236.28125 C 120.933594 232.136719 118.175781 229.285156 116.054688 226.253906 L 118.464844 230.421875 C 119.570312 232.1875 121.191406 234.449219 122.367188 236.171875 C 140.824219 258.253906 240.488281 255.035156 257.359375 231.816406 C 257.421875 231.738281 257.492188 231.625 257.550781 231.542969 C 247.03125 244.523438 177.261719 249.402344 133.179688 236.28125 " fill-opacity="1" fill-rule="nonzero"/><path fill="#286291" d="M 140.964844 249.449219 C 133.011719 246.746094 130.476562 245.15625 127.476562 242.394531 C 130.230469 245.425781 130.34375 245.527344 136.214844 250.726562 L 136.332031 250.820312 C 155.496094 264.820312 223.398438 265.007812 244.535156 247.195312 L 245.371094 246.402344 C 235.550781 255.691406 179.15625 260.792969 140.964844 249.449219 " fill-opacity="1" fill-rule="nonzero"/><path fill="#286291" d="M 151.167969 259.351562 C 146.949219 257.914062 145.957031 257.476562 142.984375 255.742188 C 144.433594 256.699219 146.4375 257.867188 147.917969 258.777344 C 149.996094 259.902344 152.816406 261.308594 154.949219 262.335938 C 173.199219 269.761719 208.523438 268.6875 226.265625 260.171875 L 229.402344 258.445312 C 216.714844 265.300781 177.335938 267.101562 151.167969 259.351562 " fill-opacity="1" fill-rule="nonzero"/><path fill="#6ed0eb" d="M 152.953125 113.300781 C 163.753906 108.445312 179.171875 107.199219 187.402344 106.890625 C 177.597656 106.660156 169.132812 107.550781 162.242188 109.527344 C 160.726562 110.066406 158.714844 110.804688 157.21875 111.394531 C 155.855469 112.003906 154.027344 112.78125 152.683594 113.425781 C 152.765625 113.390625 152.871094 113.339844 152.953125 113.300781 " fill-opacity="1" fill-rule="nonzero"/><path fill="#6ed0eb" d="M 135.316406 124.796875 C 143.886719 118.460938 163.179688 113.945312 186.921875 112.714844 C 181.664062 112.519531 154.792969 111.910156 142.234375 119.476562 C 139.804688 121.257812 136.613281 123.699219 134.292969 125.625 C 134.601562 125.375 135 125.03125 135.316406 124.796875 " fill-opacity="1" fill-rule="nonzero"/><path fill="#6ed0eb" d="M 124.082031 137.453125 C 134.605469 129.628906 157.355469 124.132812 186.511719 122.382812 C 163.117188 121.300781 135.210938 124.5 127.148438 132.695312 L 123.714844 136.792969 L 120.730469 140.84375 C 122.214844 139.050781 122.660156 138.511719 124.082031 137.453125 " fill-opacity="1" fill-rule="nonzero"/><path fill="#6ed0eb" d="M 112.128906 157.203125 C 116.917969 149.15625 139.1875 138.648438 186.1875 135.507812 C 156.296875 133.925781 121.8125 138.496094 115.839844 148.878906 C 114.4375 151.777344 112.636719 155.675781 111.425781 158.660156 C 111.636719 158.222656 111.882812 157.621094 112.128906 157.203125 " fill-opacity="1" fill-rule="nonzero"/><g clip-path="url(#969ca55d4c)"><path fill="#6ed0eb" d="M 107.855469 175.132812 C 112.988281 166.214844 136.207031 155.378906 185.972656 151.707031 C 151.484375 149.640625 112.203125 155.441406 108.710938 167.367188 L 107.4375 173.386719 L 106.726562 178.457031 C 106.972656 177.433594 107.328125 176.042969 107.855469 175.132812 " fill-opacity="1" fill-rule="nonzero"/></g><g clip-path="url(#ef695b073f)"><path fill="#6ed0eb" d="M 107.09375 199.167969 C 106.152344 185.859375 137.820312 174.339844 185.886719 170.5 C 148.542969 168.035156 106.550781 174.816406 106.246094 187.582031 C 106.398438 191.09375 106.703125 195.773438 107.105469 199.265625 L 107.09375 199.167969 " fill-opacity="1" fill-rule="nonzero"/></g><path fill="#6ed0eb" d="M 111.996094 217.023438 C 110.507812 207 133.011719 194.226562 185.949219 189.867188 C 148.207031 187.289062 106.292969 194.550781 108.8125 207.773438 C 109.785156 211.019531 111.179688 215.324219 112.375 218.496094 L 112.480469 218.753906 C 112.335938 218.234375 112.074219 217.554688 111.996094 217.023438 " fill-opacity="1" fill-rule="nonzero"/><path fill="#6ed0eb" d="M 120.894531 232.910156 C 119.644531 221.6875 145.253906 212.144531 186.136719 208.601562 C 149.542969 205.953125 110.015625 213.578125 116.054688 226.253906 L 118.464844 230.421875 C 119.628906 232.152344 121.132812 234.492188 122.367188 236.171875 C 121.269531 234.359375 121.007812 233.929688 120.894531 232.910156 " fill-opacity="1" fill-rule="nonzero"/><path fill="#6ed0eb" d="M 135.148438 249.722656 C 127.289062 241.296875 142.597656 230.125 186.449219 226.023438 C 152.8125 223.359375 118.171875 230.820312 127.476562 242.394531 C 133.070312 248.132812 133.070312 248.132812 136.214844 250.726562 L 136.332031 250.820312 C 135.976562 250.492188 135.476562 250.078125 135.148438 249.722656 " fill-opacity="1" fill-rule="nonzero"/><path fill="#6ed0eb" d="M 153.351562 261.566406 C 143.964844 256.582031 148.210938 249.984375 163.679688 245.527344 C 172.664062 242.9375 183.351562 241.808594 186.863281 241.4375 C 159.265625 238.921875 133.402344 245.90625 140.742188 253.894531 C 141.332031 254.539062 142.28125 255.230469 142.984375 255.742188 C 144.464844 256.652344 146.410156 257.914062 147.917969 258.777344 C 150.003906 259.882812 152.808594 261.328125 154.945312 262.335938 C 154.46875 262.105469 153.820312 261.816406 153.351562 261.566406 " fill-opacity="1" fill-rule="nonzero"/><path fill="#6ed0eb" d="M 167.152344 260.273438 C 169.898438 257.535156 176.777344 255.558594 187.371094 254.152344 C 171.238281 252.253906 150.96875 256.667969 156.480469 261.894531 C 159.507812 264.765625 167.335938 265.6875 167.714844 265.789062 C 164.839844 264.6875 164.222656 263.1875 167.152344 260.273438 " fill-opacity="1" fill-rule="nonzero"/></svg>