<?xml version="1.0" encoding="iso-8859-1"?>
<!-- Uploaded to: SVG Repo, www.svgrepo.com, Generator: SVG Repo Mixer Tools -->
<svg fill="#000000" height="800px" width="800px" version="1.1" id="Layer_1" xmlns="http://www.w3.org/2000/svg" xmlns:xlink="http://www.w3.org/1999/xlink" 
	 viewBox="0 0 512 512" xml:space="preserve">
<g>
	<g>
		<g>
			<path d="M77.982,116.42h-15.63c-4.466,0-8.084,3.619-8.084,8.084s3.62,8.084,8.084,8.084h15.63c4.466,0,8.084-3.619,8.084-8.084
				S82.448,116.42,77.982,116.42z"/>
			<path d="M477.023,89.872c4.466,0,8.084-3.618,8.084-8.084V46.581c0-4.466-3.619-8.084-8.084-8.084h-14.192V8.084
				c0-4.466-3.618-8.084-8.084-8.084c-4.466,0-8.084,3.619-8.084,8.084v30.413h-37.726V8.084c0-4.466-3.618-8.084-8.084-8.084
				c-4.466,0-8.084,3.619-8.084,8.084v30.413h-14.193c-4.466,0-8.084,3.619-8.084,8.084v94.855c0,4.466,3.619,8.084,8.084,8.084
				h21.378v14.912c0,11.226,8.854,20.398,19.941,20.964v139.718c0,53.173-24.44,100.741-62.672,132.074
				c17.546-23.149,27.972-51.977,27.972-83.198c0-76.099-61.911-138.009-138.009-138.009S109.177,297.891,109.177,373.99
				c0,27.159,7.89,52.506,21.491,73.882C98.5,416.807,78.46,373.259,78.46,325.114v-74.09h8.295c4.466,0,8.084-3.619,8.084-8.084
				v-19.721h3.483c8.566,0,15.536-6.97,15.536-15.537v-59.966c0-3.365-2.056-6.247-4.98-7.464v-32.857
				c0-7.578-6.166-13.743-13.744-13.743H45.616c-7.578,0-13.743,6.166-13.743,13.743v32.856c-2.924,1.217-4.981,4.1-4.981,7.466
				v59.966c0,8.567,6.97,15.537,15.537,15.537h3.482v19.721c0,4.466,3.619,8.084,8.084,8.084h8.295v74.09
				c0,98.41,76.459,179.292,173.092,186.377c3.892,0.331,7.828,0.51,11.804,0.51c0.333,0,0.663-0.011,0.996-0.013
				c0.332,0.001,0.662,0.013,0.995,0.013c103.05,0,186.886-83.836,186.886-186.886V185.377c10.919-0.744,19.582-9.842,19.582-20.947
				v-14.912h21.378c4.466,0,8.084-3.618,8.084-8.084v-35.577c0-4.466-3.619-8.084-8.084-8.084s-8.084,3.619-8.084,8.084v27.494
				h-21.378h-39.523H386.66V54.665h82.279v27.122C468.939,86.253,472.559,89.872,477.023,89.872z M48.042,109.818H92.71v29.812
				H48.042V109.818z M43.061,207.05v-51.251H97.69v51.251H86.755h-32.76H43.061z M62.079,234.855v-11.637h16.592v11.637H62.079z
				 M248.182,495.819c-3.884-0.023-7.737-0.171-11.555-0.449c-62.257-5.371-111.281-57.754-111.281-121.378
				c0-67.183,54.658-121.841,121.841-121.841s121.841,54.658,121.841,121.841C369.028,440.842,314.908,495.281,248.182,495.819z
				 M416.122,149.52h23.355v14.912c0,2.674-2.176,4.851-4.851,4.851h-13.654c-2.674,0-4.851-2.176-4.851-4.851V149.52z"/>
		</g>
	</g>
</g>
</svg>